<?xml version="1.0" encoding="utf-8"?>
<!-- Generator: Adobe Illustrator 16.0.3, SVG Export Plug-In . SVG Version: 6.00 Build 0)  -->
<!DOCTYPE svg PUBLIC "-//W3C//DTD SVG 1.1//EN" "http://www.w3.org/Graphics/SVG/1.1/DTD/svg11.dtd">
<svg version="1.1" id="accd1a1b-d405-4dd1-89fa-f32239092656"
	 xmlns="http://www.w3.org/2000/svg" xmlns:xlink="http://www.w3.org/1999/xlink" x="0px" y="0px" width="916.48px" height="762px"
	 viewBox="0 0 916.48 762" enable-background="new 0 0 916.48 762" xml:space="preserve">
<g>
	<path opacity="0.1" fill="#8489EF" enable-background="new    " d="M119.318,454.752c13.338,57.013,41.576,106.295,86.202,130.184
		c92.742,49.645,301.899,24.043,458-5.378c78.879-14.815,150.476-55.745,203.264-116.2L119.318,454.752z"/>
	<path opacity="0.1" fill="#8489EF" enable-background="new    " d="M937.896,186.408h-85.649c-4.09,0-7.403-3.314-7.403-7.403
		c0-4.089,3.313-7.404,7.403-7.404h14.806c-4.088,0-7.402-3.314-7.402-7.403s3.314-7.403,7.402-7.403l0,0H856.48
		c-4.089,0-7.403-3.314-7.403-7.403c0-4.088,3.314-7.403,7.403-7.403h44.703c-9.92-4.61-21.514-7.891-34.868-9.612
		c-121.894-15.66-165.414-5.302-180.766,5.378c-18.94,13.139-40.07,22.805-62.652,27.461
		c-75.208,15.514-215.856,34.185-343.337-5.978c-63.359-19.978-110.452,13.769-138.675,70.136h811.878
		c-1.06-16.381-4.233-31.503-10.058-44.75C941.368,185.776,939.661,186.41,937.896,186.408z"/>
	<path opacity="0.1" fill="#8489EF" enable-background="new    " d="M112.05,335.771c-3.291,33.156-2.175,66.603,3.318,99.465
		l751.984,27.499c20.934-24.079,38.509-50.883,52.249-79.68L112.05,335.771z M409.469,406.729h-14.807
		c4.089,0,7.402,3.314,7.402,7.404c0,4.088-3.313,7.402-7.402,7.402h-85.649c-4.089,0-7.403-3.314-7.403-7.402
		c0-4.09,3.314-7.404,7.403-7.404h14.806c-4.089,0-7.403-3.314-7.403-7.402c0-4.089,3.314-7.404,7.403-7.404h-10.572
		c-4.089,0-7.403-3.314-7.403-7.402c0-4.089,3.314-7.403,7.403-7.403h85.649c4.089,0,7.403,3.314,7.403,7.403
		c0,4.088-3.314,7.402-7.403,7.402l0,0h10.573c4.088,0,7.403,3.315,7.403,7.404C416.872,403.414,413.557,406.729,409.469,406.729
		L409.469,406.729z"/>
	<path opacity="0.1" fill="#8489EF" enable-background="new    " d="M952.803,229.882l-820.991,19.978
		c-9.981,25.663-16.566,54.685-19.64,84.774h826.247c5.395-17.67,9.385-35.74,11.933-54.04
		C952.811,262.906,953.794,245.81,952.803,229.882z M278.847,295.316H264.04c4.088,0,7.402,3.314,7.402,7.403
		c0,4.088-3.314,7.403-7.402,7.403h-85.649c-4.089,0-7.403-3.315-7.403-7.403c0-4.089,3.314-7.403,7.403-7.403h14.806
		c-4.089,0-7.403-3.314-7.403-7.403s3.314-7.403,7.403-7.403h-10.572c-4.089,0-7.403-3.315-7.403-7.403
		c0-4.089,3.314-7.403,7.403-7.403h85.649c4.088,0,7.403,3.314,7.403,7.403c0,4.088-3.315,7.403-7.403,7.403h10.573
		c4.089,0,7.403,3.314,7.403,7.403S282.936,295.316,278.847,295.316z"/>
	<g opacity="0.1">
		<path fill="none" stroke="#535461" stroke-width="2" stroke-miterlimit="10" d="M630.818,603.3c0,0,21.669-53.401,62.131-73.21
			c17.031-8.189,30.946-21.685,39.654-38.457c4.069-8.002,7.395-16.361,9.936-24.971"/>
		<path fill="#8489EF" d="M767.965,454.021c-4.219,5.303-26.048,13.063-26.048,13.063s2.628-23.051,6.846-28.314
			c4.542-5.047,12.315-5.457,17.362-0.916c4.618,4.155,5.411,11.103,1.848,16.191L767.965,454.021z"/>
		<path fill="#8489EF" d="M760.473,496.021c-6.424,2.158-28.951-3.212-28.951-3.212s14.714-17.888,21.138-20.048
			c6.563-1.74,13.294,2.169,15.034,8.731C769.277,487.463,766.188,493.68,760.473,496.021z"/>
		<path fill="#8489EF" d="M719.857,545.657c-6.631-1.376-23.374-17.388-23.374-17.388s21.729-8.014,28.368-6.639
			c6.541,1.822,10.365,8.602,8.542,15.143c-1.653,5.931-7.438,9.725-13.536,8.876V545.657z"/>
		<path fill="#8489EF" d="M680.67,576.3c-6.769-0.238-25.978-13.185-25.978-13.185s20.069-11.549,26.839-11.334
			c6.786-0.213,12.459,5.117,12.672,11.904c0.212,6.785-5.117,12.459-11.904,12.672C681.756,576.374,681.211,576.354,680.67,576.3z"
			/>
		<path fill="#8489EF" d="M710.544,477.803c0.869,6.724,15.537,24.641,15.537,24.641s9.658-21.053,8.798-27.775
			c-1.306-6.663-7.766-11.006-14.429-9.701C714.396,466.154,710.158,471.645,710.544,477.803z"/>
		<path fill="#8489EF" d="M665.165,514.215c2.835,6.147,22.198,18.863,22.198,18.863s2.92-22.98,0.084-29.127
			c-2.439-6.338-9.554-9.496-15.89-7.055c-6.337,2.438-9.495,9.554-7.056,15.89c0.19,0.493,0.412,0.974,0.663,1.437V514.215z"/>
		<path fill="#8489EF" d="M625.917,555.662c1.752,6.545,18.694,22.344,18.694,22.344s6.762-22.152,5.002-28.699
			c-2.189-6.427-9.174-9.861-15.602-7.672C628.18,543.621,624.719,549.617,625.917,555.662L625.917,555.662z"/>
		<path opacity="0.25" enable-background="new    " d="M767.965,454.021c-4.219,5.303-26.048,13.063-26.048,13.063
			s2.628-23.051,6.846-28.314c4.542-5.047,12.315-5.457,17.362-0.916c4.618,4.155,5.411,11.103,1.848,16.191L767.965,454.021z"/>
		<path opacity="0.25" enable-background="new    " d="M760.473,496.021c-6.424,2.158-28.951-3.212-28.951-3.212
			s14.714-17.888,21.138-20.048c6.563-1.74,13.294,2.169,15.034,8.731C769.277,487.463,766.188,493.68,760.473,496.021z"/>
		<path opacity="0.25" enable-background="new    " d="M719.857,545.657c-6.631-1.376-23.374-17.388-23.374-17.388
			s21.729-8.014,28.368-6.639c6.541,1.822,10.365,8.602,8.542,15.143c-1.653,5.931-7.438,9.725-13.536,8.876V545.657z"/>
		<path opacity="0.25" enable-background="new    " d="M680.67,576.3c-6.769-0.238-25.978-13.185-25.978-13.185
			s20.069-11.549,26.839-11.334c6.786-0.213,12.459,5.117,12.672,11.904c0.212,6.785-5.117,12.459-11.904,12.672
			C681.756,576.374,681.211,576.354,680.67,576.3z"/>
		<path opacity="0.25" enable-background="new    " d="M710.544,477.803c0.869,6.724,15.537,24.641,15.537,24.641
			s9.658-21.053,8.798-27.775c-1.306-6.663-7.766-11.006-14.429-9.701C714.396,466.154,710.158,471.645,710.544,477.803z"/>
		<path opacity="0.25" enable-background="new    " d="M665.165,514.215c2.835,6.147,22.198,18.863,22.198,18.863
			s2.92-22.98,0.084-29.127c-2.439-6.338-9.554-9.496-15.89-7.055c-6.337,2.438-9.495,9.554-7.056,15.89
			c0.19,0.493,0.412,0.974,0.663,1.437V514.215z"/>
		<path opacity="0.25" enable-background="new    " d="M625.917,555.662c1.752,6.545,18.694,22.344,18.694,22.344
			s6.762-22.152,5.002-28.699c-2.189-6.427-9.174-9.861-15.602-7.672C628.18,543.621,624.719,549.617,625.917,555.662
			L625.917,555.662z"/>
	</g>
	<g opacity="0.1">
		<path fill="none" stroke="#535461" stroke-width="2" stroke-miterlimit="10" d="M615.451,525.219c0,0,2.736-57.566,34.339-89.676
			c13.328-13.389,21.956-30.738,24.588-49.445c1.185-8.891,1.553-17.872,1.099-26.831"/>
		<path fill="#8489EF" d="M695.361,338.913c-2.22,6.4-20.246,20.946-20.246,20.946s-5.148-22.583-2.928-28.983
			c1.773-6.554,8.523-10.431,15.078-8.658c6.554,1.772,10.43,8.523,8.657,15.077C695.773,337.847,695.586,338.387,695.361,338.913z"
			/>
		<path fill="#8489EF" d="M702.185,380.989c-5.379,4.165-28.383,6.578-28.383,6.578s7.952-21.761,13.292-25.925
			c5.074-4.511,12.845-4.056,17.357,1.019c4.511,5.074,4.055,12.845-1.02,17.356C703.038,380.367,702.621,380.692,702.185,380.989z"
			/>
		<path fill="#8489EF" d="M680.325,441.32c-6.716,0.899-27.815-8.651-27.815-8.651s17.85-14.768,24.588-15.667
			c6.656-1.336,13.137,2.978,14.473,9.635c1.335,6.657-2.979,13.137-9.636,14.473c-0.521,0.104-1.049,0.176-1.579,0.211H680.325z"/>
		<path fill="#8489EF" d="M653.517,483.22c-6.47,2.021-28.883-3.842-28.883-3.842s15.09-17.573,21.56-19.593
			c6.597-1.609,13.248,2.432,14.858,9.028c1.467,6.01-1.761,12.173-7.535,14.392V483.22z"/>
		<path fill="#8489EF" d="M649.037,380.389c3.073,6.054,22.836,18.095,22.836,18.095s2.128-23.051-0.915-29.121
			c-3.429-5.86-10.959-7.831-16.819-4.401C648.797,368.087,646.612,374.696,649.037,380.389L649.037,380.389z"/>
		<path fill="#8489EF" d="M618.302,429.795c4.719,4.863,27.201,10.435,27.201,10.435s-4.864-22.644-9.582-27.507
			c-5.023-4.568-12.799-4.2-17.366,0.822c-4.168,4.583-4.275,11.549-0.253,16.258V429.795z"/>
		<path fill="#8489EF" d="M595.021,481.906c3.842,5.594,25.049,14.883,25.049,14.883s-0.968-23.143-4.794-28.736
			c-4.237-5.307-11.973-6.172-17.278-1.936c-4.755,3.797-6.017,10.5-2.969,15.766L595.021,481.906z"/>
	</g>
	<rect x="391.058" y="266.464" fill="#535461" width="5.379" height="76.068"/>
	<rect x="391.058" y="368.656" fill="#535461" width="5.379" height="43.029"/>
	<path fill="#EAEAF3" d="M499.014,203.458h34.576c1.485,0,2.689,1.204,2.689,2.689l0,0c0,1.485-1.204,2.689-2.689,2.689h-34.576
		c-1.485,0-2.689-1.204-2.689-2.689l0,0C496.324,204.662,497.528,203.458,499.014,203.458z"/>
	<circle fill="#EAEAF3" cx="550.109" cy="206.531" r="3.842"/>
	<rect x="459.059" y="561.946" fill="#535461" width="49.943" height="2.306"/>
	<rect x="527.443" y="561.946" fill="#535461" width="33.039" height="2.306"/>
	<rect x="415.262" y="561.946" fill="#535461" width="33.039" height="2.306"/>
	<rect x="579.691" y="561.946" fill="#535461" width="33.04" height="2.306"/>
</g>
<title>real-time sync</title>
<path fill="#E0E0E0" d="M704.47,520.786c0,0,14,96.19,96.19,128.14l-166.3,0.23l-166.301,0.23
	c82.061-32.181,95.851-128.41,95.851-128.41L704.47,520.786z"/>
<linearGradient id="SVGID_1_" gradientUnits="userSpaceOnUse" x1="681.6221" y1="28.4297" x2="681.6221" y2="48.749" gradientTransform="matrix(1 -0.0014 -0.0014 -1 -47.2795 698.842)">
	<stop  offset="0" style="stop-color:#808080;stop-opacity:0.25"/>
	<stop  offset="0.54" style="stop-color:#808080;stop-opacity:0.12"/>
	<stop  offset="1" style="stop-color:#808080;stop-opacity:0.1"/>
</linearGradient>
<polygon fill="url(#SVGID_1_)" points="466.404,649.376 802.144,648.907 802.172,669.227 466.433,669.695 "/>
<rect x="468.095" y="649.141" transform="matrix(-1 0.0014 -0.0014 -1 1269.7057 1313.0765)" fill="#F5F5F5" width="332.6" height="15.68"/>
<linearGradient id="SVGID_2_" gradientUnits="userSpaceOnUse" x1="682.4033" y1="144.4097" x2="682.4033" y2="512.0397" gradientTransform="matrix(1 0 0 -1.04 -48.3901 709.3889)">
	<stop  offset="0" style="stop-color:#808080;stop-opacity:0.25"/>
	<stop  offset="0.54" style="stop-color:#808080;stop-opacity:0.12"/>
	<stop  offset="1" style="stop-color:#808080;stop-opacity:0.1"/>
</linearGradient>
<path fill="url(#SVGID_2_)" d="M904.24,174.656l-540.9,0.75c-6.127,0.147-10.976,5.233-10.83,11.36l0.42,315.581v10.51
	c0,24,18.63,43.39,41.551,43.359l479.609-0.659c22.91,0,41.46-19.49,41.43-43.471v-10.5l-0.42-315.58
	c0.14-6.129-4.716-11.21-10.844-11.35C904.25,174.656,904.245,174.656,904.24,174.656z"/>
<path fill="#FFFFFF" d="M369.76,185.226h527.49c5.938,0,10.75,4.813,10.75,10.75l0,0v300.32l0,0H359l0,0v-300.32
	c0-5.937,4.813-10.75,10.75-10.75C369.753,185.226,369.757,185.226,369.76,185.226z"/>
<path fill="#F5F5F5" d="M870.41,546.216l-472.36,0.65c-21.163,0.027-38.342-17.106-38.37-38.27l0,0v-13l549-0.761v13
	c0.033,21.164-17.096,38.348-38.26,38.38C870.417,546.216,870.413,546.216,870.41,546.216z"/>
<rect x="386.12" y="210.426" fill="#E6E6E6" width="496.81" height="251.12"/>
<linearGradient id="SVGID_3_" gradientUnits="userSpaceOnUse" x1="702.1895" y1="447.6738" x2="702.1895" y2="540.0137" gradientTransform="matrix(1 0 0 -1 94 767)">
	<stop  offset="0" style="stop-color:#808080;stop-opacity:0.25"/>
	<stop  offset="0.54" style="stop-color:#808080;stop-opacity:0.12"/>
	<stop  offset="1" style="stop-color:#808080;stop-opacity:0.1"/>
</linearGradient>
<rect x="752.22" y="226.986" fill="url(#SVGID_3_)" width="87.94" height="92.34"/>
<rect x="756.04" y="231.006" fill="#8489EF" width="80.3" height="84.31"/>
<g opacity="0.5">
	
		<linearGradient id="SVGID_4_" gradientUnits="userSpaceOnUse" x1="817.2002" y1="420.3164" x2="868" y2="420.3164" gradientTransform="matrix(1 0 0 -1 -47.7598 698)">
		<stop  offset="0" style="stop-color:#808080;stop-opacity:0.25"/>
		<stop  offset="0.54" style="stop-color:#808080;stop-opacity:0.12"/>
		<stop  offset="1" style="stop-color:#808080;stop-opacity:0.1"/>
	</linearGradient>
	<path fill="url(#SVGID_4_)" d="M801.68,268.496l-1-0.36l-0.06,0.09h-0.061v-2.72c0.001-0.335-0.026-0.669-0.079-1
		c1.619-1.192,2.859-2.828,3.569-4.71c4.14-5.366,3.146-13.071-2.22-17.21s-13.07-3.145-17.21,2.22
		c-3.407,4.416-3.407,10.574,0,14.99c0.71,1.882,1.95,3.518,3.57,4.71c-0.054,0.331-0.08,0.665-0.08,1v3l0,0
		c-11.029,3.045-18.669,13.078-18.67,24.52v22.31h50.8v-22.34C820.243,281.593,812.658,271.58,801.68,268.496z"/>
</g>
<path fill="#514ABF" d="M793.3,267.946h3.101c12.663,0,22.93,10.266,22.93,22.93l0,0v23l0,0h-49l0,0v-23
	c0-12.664,10.266-22.93,22.93-22.93C793.273,267.946,793.287,267.946,793.3,267.946z"/>
<path fill="#FDA57D" d="M793.98,259.956h0.75c3.104,0,5.619,2.517,5.619,5.62v3.75c0,3.104-2.516,5.62-5.619,5.62h-0.75
	c-3.104,0-5.62-2.516-5.62-5.62v-3.75C788.36,262.473,790.876,259.956,793.98,259.956z"/>
<polygon opacity="0.05" enable-background="new    " points="784.2,270.596 788.22,279.216 792.21,275.226 788.22,269.096 "/>
<path fill="#FFFFFF" d="M784.34,270.176l4,8.62l4-4l-4-6.12l-1.84,0.56c-0.181,0.056-0.357,0.123-0.53,0.2L784.34,270.176z"/>
<polygon opacity="0.05" enable-background="new    " points="804.52,270.176 800.49,279.216 796.49,275.226 800.6,268.776 "/>
<path fill="#FFFFFF" d="M804.38,269.756l-4,9l-4-4l4.11-6.45l0.75,0.22c0.813,0.232,1.612,0.516,2.39,0.85L804.38,269.756z"/>
<polygon fill="#FDA57D" points="792.05,274.486 794.29,277.746 796.65,274.486 "/>
<path opacity="0.1" enable-background="new    " d="M779.57,286.296c0,0-2.38,23.69-0.84,25.23"/>
<path opacity="0.1" enable-background="new    " d="M809.01,286.296c0,0,2.38,23.69,0.84,25.23"/>
<path opacity="0.05" enable-background="new    " d="M794.35,267.226c2.13,0,4.204-0.679,5.92-1.94
	c-0.466-2.908-2.975-5.048-5.92-5.05l0,0c-2.945,0.002-5.453,2.142-5.92,5.05C790.146,266.547,792.221,267.227,794.35,267.226z"/>
<circle cx="794.35" cy="253.256" r="11.81"/>
<circle fill="#FDA57D" cx="794.35" cy="256.956" r="9.99"/>
<path opacity="0.05" enable-background="new    " d="M786.3,247.056l2.521,3.08c0,0,11.069,1,12.33-1.54
	c1.26-2.54-7.29-4.35-7.29-4.35L786.3,247.056z"/>
<path d="M786.3,246.776l2.521,3.08c0,0,11.069,1,12.33-1.54c1.26-2.54-7.29-4.35-7.29-4.35L786.3,246.776z"/>
<ellipse fill="#FDA57D" cx="784.34" cy="256.306" rx="0.7" ry="1.26"/>
<ellipse fill="#FDA57D" cx="804.38" cy="256.306" rx="0.7" ry="1.26"/>
<linearGradient id="SVGID_5_" gradientUnits="userSpaceOnUse" x1="702.7002" y1="336.9043" x2="702.7002" y2="429.2437" gradientTransform="matrix(1 0 0 -1 94 767)">
	<stop  offset="0" style="stop-color:#808080;stop-opacity:0.25"/>
	<stop  offset="0.54" style="stop-color:#808080;stop-opacity:0.12"/>
	<stop  offset="1" style="stop-color:#808080;stop-opacity:0.1"/>
</linearGradient>
<rect x="752.73" y="337.756" fill="url(#SVGID_5_)" width="87.939" height="92.339"/>
<rect x="756.55" y="341.766" fill="#8489EF" width="80.3" height="84.31"/>
<g opacity="0.5">
	
		<linearGradient id="SVGID_6_" gradientUnits="userSpaceOnUse" x1="844.5195" y1="267.7441" x2="844.5195" y2="352.29" gradientTransform="matrix(1 0 0 -1 -47.7598 698)">
		<stop  offset="0" style="stop-color:#808080;stop-opacity:0.25"/>
		<stop  offset="0.54" style="stop-color:#808080;stop-opacity:0.12"/>
		<stop  offset="1" style="stop-color:#808080;stop-opacity:0.1"/>
	</linearGradient>
	<path fill="url(#SVGID_6_)" d="M802.77,379.756v-3.1c0-0.15,0-0.31,0-0.46c1.701-1.273,2.999-3.009,3.74-5
		c4.401-5.708,3.342-13.902-2.365-18.303c-0.943-0.727-1.98-1.321-3.085-1.767c0.539-2.393-0.963-4.769-3.355-5.307
		c-2.393-0.539-4.769,0.963-5.307,3.355c-0.117,0.519-0.14,1.055-0.067,1.582c-6.889,2.12-10.755,9.422-8.635,16.311
		c0.461,1.498,1.188,2.899,2.145,4.139c0.741,1.991,2.039,3.727,3.74,5c0,0.15,0,0.3,0,0.46v3.28
		c-11.517,2.208-19.85,12.273-19.87,24v26.31h54.1v-26.27C823.807,391.798,814.837,381.469,802.77,379.756z"/>
</g>
<path fill="#FFFFFF" d="M795.15,380.316h3.1c12.664,0,22.93,10.266,22.93,22.93v23l0,0h-49l0,0v-23
	c0-12.664,10.267-22.93,22.931-22.93H795.15z"/>
<path fill="#FDB797" d="M795.82,372.326h0.75c3.104,0,5.62,2.516,5.62,5.62v3.75c0,3.104-2.517,5.62-5.62,5.62h-0.75
	c-3.104,0-5.62-2.516-5.62-5.62v-3.75C790.2,374.842,792.716,372.326,795.82,372.326z"/>
<polygon fill="#FDB797" points="793.9,386.856 796.14,390.116 798.49,386.856 "/>
<path opacity="0.1" enable-background="new    " d="M781.42,398.656c0,0-2.38,23.689-0.84,25.23"/>
<path opacity="0.1" enable-background="new    " d="M810.86,398.656c0,0,2.38,23.689,0.84,25.23"/>
<path opacity="0.05" enable-background="new    " d="M796.24,379.596c2.129,0,4.203-0.679,5.92-1.94
	c-0.467-2.908-2.975-5.048-5.92-5.05l0,0c-2.976-0.038-5.529,2.111-6,5.05C791.979,378.933,794.083,379.614,796.24,379.596z"/>
<circle fill="#FDD835" cx="796.2" cy="365.626" r="11.81"/>
<circle fill="#FDB797" cx="796.2" cy="369.326" r="9.99"/>
<ellipse fill="#FDB797" cx="786.18" cy="368.676" rx="0.7" ry="1.26"/>
<ellipse fill="#FDB797" cx="806.23" cy="368.676" rx="0.699" ry="1.26"/>
<circle fill="#FDD835" cx="796.7" cy="353.816" r="4.01"/>
<path fill="#FDD835" d="M788.67,357.826c0,0,4,8,16.061,4l-4-4H788.67z"/>
<rect x="426.01" y="241.937" fill="#FFFFFF" width="220.98" height="9.61"/>
<rect x="426.01" y="261.146" fill="#FFFFFF" width="220.98" height="9.61"/>
<rect x="426.01" y="280.366" fill="#FFFFFF" width="124.9" height="9.61"/>
<rect x="426.01" y="299.576" fill="#FFFFFF" width="182.55" height="9.61"/>
<rect x="426.01" y="318.796" fill="#FFFFFF" width="153.721" height="9.61"/>
<rect x="426.01" y="338.006" fill="#FFFFFF" width="220.98" height="9.61"/>
<rect x="435.62" y="366.836" fill="#FFFFFF" width="192.149" height="76.86"/>
<polyline fill="none" stroke="#3AD29F" stroke-width="6" stroke-miterlimit="10" stroke-dasharray="12" points="253.907,678.671 
	54.09,678.671 54.09,102.201 678.6,102.201 678.6,150.241 "/>
<g opacity="0.5">
	
		<linearGradient id="SVGID_7_" gradientUnits="userSpaceOnUse" x1="-58.6997" y1="630.7432" x2="-58.6997" y2="703.3438" gradientTransform="matrix(1 0 0 -1 94 767)">
		<stop  offset="0" style="stop-color:#808080;stop-opacity:0.25"/>
		<stop  offset="0.54" style="stop-color:#808080;stop-opacity:0.12"/>
		<stop  offset="1" style="stop-color:#808080;stop-opacity:0.1"/>
	</linearGradient>
	<circle fill="url(#SVGID_7_)" cx="35.3" cy="99.956" r="36.3"/>
</g>
<circle fill="#69F0AE" cx="35.3" cy="99.956" r="34.16"/>
<polygon fill="#FFFFFF" points="22.49,97.816 35.3,109.556 53.44,82.866 59.85,88.206 35.3,120.236 17.15,99.956 "/>
<linearGradient id="SVGID_8_" gradientUnits="userSpaceOnUse" x1="392.9702" y1="-7.0273" x2="392.9702" y2="260.4322" gradientTransform="matrix(1 0 0 -1.02 -48.3701 701.8097)">
	<stop  offset="0" style="stop-color:#808080;stop-opacity:0.25"/>
	<stop  offset="0.54" style="stop-color:#808080;stop-opacity:0.12"/>
	<stop  offset="1" style="stop-color:#808080;stop-opacity:0.1"/>
</linearGradient>
<path fill="url(#SVGID_8_)" d="M279.94,435.295h129.32c5.523,0,10,4.477,10,10v251.94c0,5.522-4.477,10-10,10H279.94
	c-5.523,0-10-4.478-10-10v-251.94C269.94,439.771,274.417,435.295,279.94,435.295z"/>
<path fill="#FFFFFF" d="M283.38,439.765h122.44c5.523,0,10,4.478,10,10v241.15c0,5.522-4.477,10-10,10H283.38
	c-5.523,0-10-4.478-10-10v-241.15C273.38,444.242,277.857,439.765,283.38,439.765z"/>
<rect x="290.013" y="457.815" transform="matrix(-1 0.0014 -0.0014 -1 691.0951 1127.667)" fill="#E6E6E6" width="110.28" height="212.52"/>
<ellipse transform="matrix(-0.0014 -1 1 -0.0014 -339.8539 1031.9044)" fill="#DBDBDB" cx="345.313" cy="685.645" rx="9.01" ry="8.79"/>
<ellipse fill="#DBDBDB" cx="328.291" cy="447.919" rx="1.76" ry="1.8"/>
<path fill="#DBDBDB" d="M337.199,446.557l25.26-0.035c0.552-0.002,1,0.445,1.001,0.998l0.001,0.699c0,0.553-0.446,1.002-0.999,1.002
	l-25.26,0.035c-0.552,0.001-1-0.446-1.001-0.998l-0.001-0.7C336.2,447.006,336.646,446.557,337.199,446.557z"/>
<linearGradient id="SVGID_9_" gradientUnits="userSpaceOnUse" x1="251.1504" y1="120.3848" x2="251.1504" y2="185.9453" gradientTransform="matrix(1 0 0 -1 94 767)">
	<stop  offset="0" style="stop-color:#808080;stop-opacity:0.25"/>
	<stop  offset="0.54" style="stop-color:#808080;stop-opacity:0.12"/>
	<stop  offset="1" style="stop-color:#808080;stop-opacity:0.1"/>
</linearGradient>
<rect x="313.93" y="581.055" fill="url(#SVGID_9_)" width="62.44" height="65.561"/>
<rect x="316.65" y="583.904" fill="#8489EF" width="57.01" height="59.86"/>
<g opacity="0.5">
	
		<linearGradient id="SVGID_10_" gradientUnits="userSpaceOnUse" x1="392.9253" y1="51.3848" x2="392.9253" y2="108.2554" gradientTransform="matrix(1 0 0 -1 -47.7598 698)">
		<stop  offset="0" style="stop-color:#808080;stop-opacity:0.25"/>
		<stop  offset="0.54" style="stop-color:#808080;stop-opacity:0.12"/>
		<stop  offset="1" style="stop-color:#808080;stop-opacity:0.1"/>
	</linearGradient>
	<path fill="url(#SVGID_10_)" d="M349.47,611.035v-1.131h3v-5.789c2.816-4.275,1.633-10.025-2.643-12.841
		c-4.275-2.816-10.024-1.634-12.84,2.643c-1.938,2.94-2.041,6.726-0.267,9.769v6.219h3.31v1.33
		c-8.333,2.299-14.106,9.877-14.11,18.521v16.86h38.49v-16.86C364.406,620.794,358.207,613.027,349.47,611.035z"/>
</g>
<rect x="337.55" y="599.295" fill="#F55F44" width="14.25" height="11.4"/>
<path fill="#FDD835" d="M340.63,611.295h9c7.103,0,12.86,5.758,12.86,12.859v19.78l0,0h-34.72l0,0v-19.8
	C327.781,617.041,333.536,611.295,340.63,611.295z"/>
<path fill="#FDA57D" d="M343.69,605.595h2.21c1.74,0,3.15,1.411,3.15,3.15v4.34c0,1.739-1.41,3.149-3.15,3.149h-2.21
	c-1.74,0-3.15-1.41-3.15-3.149v-4.34C340.541,607.006,341.951,605.595,343.69,605.595z"/>
<polygon fill="#FDA57D" points="343.17,615.915 344.76,618.234 346.43,615.915 "/>
<path opacity="0.1" enable-background="new    " d="M334.311,624.295c0,0-1.69,16.82-0.6,17.91"/>
<path opacity="0.1" enable-background="new    " d="M355.21,624.295c0,0,1.69,16.82,0.6,17.91"/>
<path opacity="0.05" enable-background="new    " d="M344.8,610.766c1.512,0.001,2.984-0.482,4.2-1.381
	c-0.329-2.065-2.108-3.586-4.2-3.59l0,0c-2.091,0.004-3.871,1.524-4.2,3.59C341.816,610.283,343.289,610.767,344.8,610.766z"/>
<circle fill="#F55F44" cx="344.8" cy="600.845" r="8.39"/>
<circle fill="#FDA57D" cx="344.8" cy="603.465" r="7.09"/>
<ellipse fill="#FDA57D" cx="337.69" cy="603.005" rx="0.5" ry="0.899"/>
<ellipse fill="#FDA57D" cx="351.92" cy="603.005" rx="0.5" ry="0.899"/>
<rect x="297.03" y="471.555" fill="#FFFFFF" width="96.24" height="4.18"/>
<rect x="297.03" y="479.915" fill="#FFFFFF" width="96.24" height="4.18"/>
<rect x="297.03" y="488.285" fill="#FFFFFF" width="54.4" height="4.18"/>
<rect x="297.03" y="496.654" fill="#FFFFFF" width="79.5" height="4.181"/>
<rect x="297.03" y="505.025" fill="#FFFFFF" width="66.95" height="4.18"/>
<rect x="297.03" y="513.395" fill="#FFFFFF" width="96.24" height="4.181"/>
<rect x="301.22" y="525.945" fill="#FFFFFF" width="83.69" height="33.47"/>
<path opacity="0.1" enable-background="new    " d="M277.61,553.976c0,0-2.38,23.689-0.84,25.229"/>
<title>android</title>
</svg>
