<?xml version="1.0" encoding="utf-8"?>
<!-- Generator: Adobe Illustrator 16.0.3, SVG Export Plug-In . SVG Version: 6.00 Build 0)  -->
<!DOCTYPE svg PUBLIC "-//W3C//DTD SVG 1.1//EN" "http://www.w3.org/Graphics/SVG/1.1/DTD/svg11.dtd">
<svg version="1.1" id="Capa_1" xmlns="http://www.w3.org/2000/svg" xmlns:xlink="http://www.w3.org/1999/xlink" x="0px" y="0px"
	 width="1125px" height="1125px" viewBox="0 655.5 1125 1125" enable-background="new 0 655.5 1125 1125" xml:space="preserve">
<path fill="#FFFFFF" d="M687.563,1407.344c-11.643,0-21.094,9.451-21.094,21.094s9.451,21.094,21.094,21.094
	s21.094-9.451,21.094-21.094S699.205,1407.344,687.563,1407.344z"/>
<path fill="#FFFFFF" d="M995.531,677.5H126.469C68.313,677.5,21,724.813,21,782.969v645.469
	c0,58.155,47.313,105.469,105.469,105.469h329.063v97.031h-21.094c-28.163,0-54.637,10.975-74.569,30.898
	c-19.924,19.933-30.899,46.406-30.899,74.57c0,11.651,9.442,21.094,21.094,21.094h421.875c11.651,0,21.094-9.442,21.094-21.094
	c0-58.155-47.313-105.469-105.469-105.469h-21.094v-97.031h329.063c58.155,0,105.469-47.313,105.469-105.469V782.969
	C1101,724.813,1053.687,677.5,995.531,677.5z M126.469,719.688h869.063c34.896,0,63.281,28.386,63.281,63.281v540h-97.031V837.813
	c0-11.651-9.442-21.094-21.094-21.094h-168.75c-11.651,0-21.094,9.442-21.094,21.094v485.156H645.26
	c-0.223-21.818-0.792-43.324-1.697-64.188c-3.691-85.907-12.104-143.453-16.479-168.766c43.521-32.044,55.403-91.437,28.798-137.579
	L582.77,825.807c-3.774-6.526-10.736-10.547-18.268-10.547c-7.54,0-14.502,4.021-18.268,10.547L473.09,952.443
	c-25.082,43.506-16.191,99.858,23.211,133.114c-4.564,25.238-13.777,84.845-17.78,173.182c-0.948,21.085-1.55,42.609-1.781,64.229
	H371.156v-316.406c0-3.345-0.792-6.394-2.085-9.105c-0.057-0.107-0.09-0.222-0.14-0.33l-84.375-168.75
	c-3.576-7.144-10.876-11.659-18.869-11.659s-15.293,4.515-18.869,11.659l-84.375,168.75c-0.049,0.108-0.083,0.223-0.131,0.33
	c-1.319,2.736-2.093,5.834-2.093,9.105v316.406H63.188v-540C63.188,748.073,91.573,719.688,126.469,719.688z M793.031,1322.969
	V858.906h126.563v42.188H898.5c-11.651,0-21.094,9.442-21.094,21.094s9.442,21.094,21.094,21.094h21.094v63.281H898.5
	c-11.651,0-21.094,9.442-21.094,21.094s9.442,21.094,21.094,21.094h21.094v63.281H898.5c-11.651,0-21.094,9.442-21.094,21.094
	s9.442,21.094,21.094,21.094h21.094v84.375H898.5c-11.651,0-21.094,9.442-21.094,21.094s9.442,21.094,21.094,21.094h21.094v42.188
	H793.031z M564.502,1110.573c7.663,0,15.293-0.882,22.759-2.53c3.913,25.091,9.664,69.485,13.067,130.551h-78.517
	c3.568-61.023,9.591-106.112,13.752-132.051C544.908,1109.205,554.64,1110.573,564.502,1110.573z M564.502,1068.385
	c-48.21,0-79.3-52.47-54.868-94.856l54.868-94.988l54.836,94.979C643.678,1015.733,613.018,1068.385,564.502,1068.385z
	 M519.876,1280.781h82.307c0.444,13.858,0.75,27.957,0.898,42.188h-84.153C519.084,1308.83,519.406,1294.731,519.876,1280.781z
	 M286.781,1322.969v-295.313h42.188v295.313H286.781z M202.406,1322.969v-295.313h42.188v295.313H202.406z M215.441,985.469
	l50.246-100.491l50.247,100.491H215.441z M747.227,1715.313H374.749c3.098-8.792,8.157-16.851,14.946-23.648
	c11.964-11.956,27.851-18.539,44.742-18.539h253.125C715.066,1673.125,738.525,1690.758,747.227,1715.313z M624.281,1630.938
	H497.719v-97.031h126.563V1630.938z M995.531,1491.719H126.469c-34.896,0-63.281-28.386-63.281-63.281v-63.281h995.625v63.281
	C1058.813,1463.333,1030.427,1491.719,995.531,1491.719z"/>
<path fill="#FFFFFF" d="M603.188,1407.344H476.625c-11.651,0-21.094,9.442-21.094,21.094s9.442,21.094,21.094,21.094h126.563
	c11.651,0,21.094-9.442,21.094-21.094S614.839,1407.344,603.188,1407.344z"/>
</svg>
