<?xml version="1.0" encoding="utf-8"?>
<!-- Generator: Adobe Illustrator 16.0.3, SVG Export Plug-In . SVG Version: 6.00 Build 0)  -->
<!DOCTYPE svg PUBLIC "-//W3C//DTD SVG 1.1//EN" "http://www.w3.org/Graphics/SVG/1.1/DTD/svg11.dtd">
<svg version="1.1" id="Capa_1" xmlns="http://www.w3.org/2000/svg" xmlns:xlink="http://www.w3.org/1999/xlink" x="0px" y="0px"
	 width="2193.001px" height="1104.131px" viewBox="-917.5 -462.551 2193.001 1104.131"
	 enable-background="new -917.5 -462.551 2193.001 1104.131" xml:space="preserve">
<g>
	<rect x="-917.5" y="-462.551" fill="#FFFFFF" width="2192.998" height="1104.131"/>
	<path fill="#E4E7F2" d="M-917.5-358.971v940.356c40.012,5.053,79.932,8.983,120.389,6.506
		c120.391-8.566,240.783-59.886,348.158-113.168c63.564-31.6,126.898-63.578,185.418-104.468
		c47.777-33.491,97.188-70.888,130.205-119.38c15.874-22.51,28.873-55.857,14.452-82.422c-10.049-18.509-31.367-28.833-50.249-35.63
		c-35.791-12.862-69.884-16.51-107.374-19.988c-104.361-11.709-211.632-18.958-292.844-95.293
		c-64.329-60.892-81.344-153.717-99.204-236.597c-15.358-70.828-43.961-137.675-125.308-145.868
		C-835.313-368.732-876.716-364.465-917.5-358.971z"/>
	<path fill="#FEFEFE" d="M1112.807,44.503c11.151,13.077,17.821,29.286,29.852,42.298c35.226,37.924,82.063,53.821,132.84,52.065
		V119.34c-85.297,0-159.521-77.387-156.184-162.691c0.87-18.419,4.751-35.057,11.729-52.059
		c4.538-12.168,12.754-22.78,14.301-35.796c16.985-9.729,41.042-29.284,52.06-45.551l6.508,3.254
		c19.213-16.27,47.214-19.071,71.583-19.523v-22.776c-91.812,0-169.287,62.639-178.331,157.563
		C1093.286-20.429,1105.6,8.713,1112.807,44.503z"/>
	<path fill="#FBFBFB" d="M1203.915-173.503l-6.508-3.254c-16.271,16.269-34.879,30.699-52.06,45.551
		c-5.632,26.031-23.521,46.782-26.031,74.838c-6.509,92.618,60.088,175.708,156.185,175.708v-13.014
		c-26.031,0-52.461-7.614-74.837-20.706c-13.017-7.479-22.78-18.34-35.796-24.848c2.479-25.686-29.283-51.318-19.521-78.09
		c-10.602-18.317-5.815-32.54-1.461-52.062c13.409-59.959,69.752-106.525,131.614-110.629v-13.016
		C1252.721-192.899,1219.11-192.97,1203.915-173.503z"/>
	<path fill="#F6F6F6" d="M1145.348-17.318c-11.743,22.777,17.381,55.317,19.521,78.09c35.709,25.053,65.058,45.554,110.63,45.554
		V77.042c-37.845,0.18-74.838-19.524-94.615-52.062c-7.594-12.291-8.274-29.842-19.268-39.048c1.265-9.76-2.701-19.287-1.432-29.283
		c7.653-60.486,50.097-119.846,115.314-120.391v-16.272c-62.598,1.85-120.728,49.68-133.406,110.629
		C1138.541-50.613,1132.958-33.588,1145.348-17.318z"/>
	<path fill="#B1B9D4" d="M1190.9-114.934h84.598v-48.808C1242.668-163.652,1200.66-150.153,1190.9-114.934z"/>
	<path fill="#BCC2DA" d="M1187.644-121.441c-11.945,20.471-19.521,37.946-19.521,61.823h107.375v-55.316
		C1248.666-114.934,1211.631-108.103,1187.644-121.441z"/>
	<path fill="#EDEDED" d="M1164.868-69.383c-2.415,19.792-3.788,35.795-3.253,55.315c9.64,12.193,10.829,29.29,19.268,42.3
		c19.777,30.783,57.687,51.164,94.615,48.811V54.264c-43.234,0-85.236-30.913-100.869-71.582
		C1168.76-34.142,1171.376-53.11,1164.868-69.383z"/>
	<path fill="#C8CBE0" d="M1168.123-59.618c0,10.159,0.896,19.522,3.253,29.284c33.374-6.199,70.184-6.508,104.122-6.508v-22.776
		H1168.123z"/>
	<path fill="#D2D6E6" d="M1171.376-30.334c1.978,13.131,6.414,30.983,18.252,39.047c6.668,4.397,16.415,3.375,24.048,3.254
		c20.674,0,41.008-3.254,61.822-3.254v-45.556C1242.186-36.844,1203.768-38.047,1171.376-30.334z"/>
	<path fill="#C7DFD1" d="M849.248-14.068v9.766h9.765v-9.766H849.248z"/>
	<path fill="#E0E2EE" d="M1190.9,11.964c19.523,27.63,51.223,42.299,84.598,42.299V8.713L1190.9,11.964z"/>
	<path fill="#C3DDCE" d="M849.248,11.964v9.763h9.765v-9.763H849.248z"/>
	<path fill="#C5DFCF" d="M875.279,11.964v9.763h9.76v-9.763H875.279z"/>
	<path fill="#CBE2D4" d="M849.248,37.996v9.761h9.765v-9.761H849.248z"/>
	<path fill="#C3DDCE" d="M875.279,37.996v9.761h9.76v-9.761H875.279z"/>
	<path fill="#CBE2D3" d="M901.31,37.996v9.761h9.761v-9.761H901.31z"/>
	<path fill="#C2DDCE" d="M927.339,37.996v9.761h9.763v-9.761H927.339z M849.248,64.026v9.762h9.765v-9.762H849.248z"/>
	<path fill="#C6DFD0" d="M875.279,64.026v9.762h9.76v-9.762H875.279z"/>
	<path fill="#C3DDCE" d="M901.31,64.026v9.762h9.761v-9.762H901.31z"/>
	<path fill="#C6DFD0" d="M927.339,64.026v9.762h9.763v-9.762H927.339z"/>
	<path fill="#C3DDCE" d="M849.248,90.054v9.766h9.765v-9.766H849.248z M875.279,90.054v9.766h9.76v-9.766H875.279z M901.31,90.054
		v9.766h9.761v-9.766H901.31z M927.339,90.054v9.766h9.763v-9.766H927.339z M849.248,116.087v9.764h9.765v-9.764H849.248z"/>
	<path fill="#C6DFD0" d="M875.279,116.087v9.764h9.76v-9.764H875.279z"/>
	<path fill="#C3DDCE" d="M901.31,116.087v9.764h9.761v-9.764H901.31z"/>
	<path fill="#C7DFD0" d="M927.339,116.087v9.764h9.763v-9.764H927.339z"/>
	<path fill="#C3DDCC" d="M901.31,142.119v9.764h9.761v-9.764H901.31z"/>
	<path fill="#C3DDCE" d="M927.339,142.119v9.764h9.763v-9.764H927.339z"/>
	<path fill="#C6DFD0" d="M927.339,168.147v9.766h9.763v-9.766H927.339z"/>
</g>
</svg>
