<?xml version="1.0" encoding="utf-8"?>
<!-- Generator: Adobe Illustrator 16.0.3, SVG Export Plug-In . SVG Version: 6.00 Build 0)  -->
<!DOCTYPE svg PUBLIC "-//W3C//DTD SVG 1.1//EN" "http://www.w3.org/Graphics/SVG/1.1/DTD/svg11.dtd">
<svg version="1.1" id="Capa_1" xmlns="http://www.w3.org/2000/svg" xmlns:xlink="http://www.w3.org/1999/xlink" x="0px" y="0px"
	 width="15419.663px" height="5096.636px" viewBox="-2145.795 -251.085 15419.663 5096.636"
	 enable-background="new -2145.795 -251.085 15419.663 5096.636" xml:space="preserve">
	 <style>
	 
		.Boom {
			animation-duration: 1s;
			animation-name: kaboom;
			transform-origin: center center;
			animation-direction: alternate;
			animation-fill-mode: both;
		}

		.Boom:nth-child(1) {
			animation-delay: 0.9s;
		}
		.Boom:nth-child(2) {
			animation-delay: 0.5s;
		}


		@keyframes kaboom {
			0% {
				transform: scale(0.5);
				opacity: 0;
			}
			100% {
				transform: scale(1.0);
				opacity: 1.0;
			}
		}


	 </style>
<g>
	<g>
		<g>
			<path id="a" class="Boom" fill="#E2EAEF" d="M12434.854-113.211c-1293.373,0-2341.898,1048.507-2341.898,2341.902
				c0,1293.375,1048.525,2341.883,2341.898,2341.883c296.434,0,579.968-55.107,841.005-155.585V42.384
				C13014.828-58.097,12731.29-113.211,12434.854-113.211z"/>
			<path fill="#D7E6ED" class="Boom" d="M12437.444,280.126c-1077.578,0-1951.14,873.56-1951.14,1951.145
				c0,1077.576,873.562,1951.141,1951.14,1951.141c300.131,0,584.402-67.795,838.424-188.859V468.983
				C13021.862,347.915,12737.575,280.126,12437.444,280.126z"/>
			<path fill="#CCDEE9" class="Boom" d="M12452.968,756.265c-811.77,0-1469.831,658.065-1469.831,1469.826
				c0,811.771,658.058,1469.838,1469.831,1469.838c304.896,0,588.088-92.845,822.892-251.787V1008.051
				C13041.06,849.107,12757.863,756.265,12452.968,756.265z"/>
		</g>
		<g>
			<line fill="none" x1="13006.744" y1="4665.567" x2="13006.744" y2="-546.105"/>
			<path fill="#FFFFFF" d="M12645.004,4039.978c-3.336,0-6.001-1.125-8.013-3.382c-1.997-2.273-3.002-5.078-3.002-8.42v-270.087
				c0-3.018,0.933-5.688,2.754-8.036c1.84-2.342,4.602-3.681,8.261-4.014h62.315c2.998,0,5.889,1.037,8.634,3.133
				c2.745,2.1,4.132,5.069,4.132,8.915v86.603h274.84c3.015,0,5.738,1.081,8.167,3.25c2.425,2.17,3.644,5.004,3.644,8.51v73.612
				c0,2.834-1.125,5.505-3.387,8.013c-2.261,2.503-5.068,3.754-8.424,3.754h-274.831v86.348c0,3.351-1.086,6.146-3.257,8.418
				c-2.179,2.257-5.34,3.388-9.518,3.388h-62.315V4039.978L12645.004,4039.978z"/>
			<path fill="#FFFFFF" d="M12712.048,3714.928c-6.687,2.687-12.414,2.726-17.178,0.129c-4.767-2.597-7.154-8.322-7.154-17.189
				v-61.995c0-4.18,1.293-7.614,3.895-10.291c2.599-2.674,5.813-4.682,9.656-6.022l202.057-71.041l-202.057-69.525
				c-5.35-1.834-8.945-4.178-10.801-7.027c-1.834-2.839-2.752-6.776-2.752-11.791v-64.507c0-4.686,0.631-8.37,1.887-11.041
				c1.251-2.678,2.924-4.563,5.021-5.654c2.08-1.083,4.429-1.463,7.021-1.129c2.605,0.338,5.148,1.005,7.657,2.013
				c15.729,6.357,32.925,13.3,51.589,20.828c18.648,7.531,38.063,15.352,58.234,23.469c20.158,8.133,40.653,16.368,61.492,24.723
				c20.829,8.372,41.296,16.535,61.375,24.479c20.082,7.951,39.365,15.604,57.852,22.97c18.489,7.365,35.479,14.106,50.949,20.205
				c15.48,6.113,29.09,11.42,40.794,15.938c11.726,4.521,20.752,7.947,27.117,10.298l-1.256-0.761
				c4.52,1.186,8.158,3.264,10.912,6.271c2.769,3.016,4.145,6.698,4.145,11.039v57.987c0,7.533-1.472,12.674-4.387,15.443
				c-2.933,2.763-7.243,4.141-12.929,4.141c-2.183,0-3.854-0.29-5.03-0.884c-1.173-0.586-1.919-1.046-2.259-1.384l-102.407-39.418
				L12712.048,3714.928z"/>
			<path fill="#FFFFFF" d="M12690.974,3332.876c-1.84-2.167-3.007-4.429-3.525-6.776c-0.486-2.349-0.746-4.599-0.746-6.781v-37.906
				c0-3.175,0.5-5.813,1.516-7.901c1-2.096,2.369-3.803,4.136-5.154c1.76-1.337,3.768-2.466,6.021-3.389
				c2.275-0.92,4.729-1.794,7.408-2.638l30.369-10.544c-6.025-4.677-12.168-9.413-18.445-14.17
				c-6.275-4.769-11.963-10.431-17.069-16.952c-5.106-6.523-9.334-14.301-12.675-23.341c-3.353-9.037-5.033-20.078-5.033-33.134
				c0-22.926,4.231-44.047,12.674-63.377c8.461-19.331,20.094-35.971,34.902-49.951c14.813-13.97,32.212-24.893,52.205-32.753
				c20.002-7.862,41.631-11.804,64.893-11.804c23.09,0,44.678,3.941,64.758,11.804c20.08,7.866,37.527,18.792,52.332,32.753
				c14.809,13.98,26.481,30.62,35.02,49.951c8.536,19.335,12.808,40.457,12.808,63.377c0,10.882-1.297,20.251-3.89,28.119
				c-2.586,7.86-5.989,14.857-10.167,20.955c-4.18,6.111-8.782,11.517-13.799,16.193c-5.037,4.684-10.047,9.288-15.063,13.804
				h116.965c5.019,0,9.294,1.498,12.809,4.516c3.509,3.009,5.266,7.692,5.266,14.059v57.483c0,2.006-0.418,4.188-1.251,6.53
				c-0.835,2.344-2.015,4.518-3.521,6.523c-1.502,2.006-3.38,3.691-5.641,5.023c-2.266,1.346-4.82,2.011-7.659,2.011h-381.287
				c-3.342,0-6.109-0.633-8.287-1.88C12694.823,3336.273,12692.812,3334.725,12690.974,3332.876z M12847.601,3098.436
				c-10.705,0-20.87,1.76-30.494,5.276c-9.617,3.511-18.024,8.464-25.227,14.811c-7.203,6.36-12.885,13.979-17.076,22.841
				c-4.177,8.868-6.276,18.662-6.276,29.378c0,10.542,1.964,20.545,5.911,29.999c3.931,9.458,9.283,17.729,16.049,24.843
				c6.789,7.109,14.775,12.89,23.975,17.318c9.207,4.437,19,6.907,29.382,7.417h3.763c11.042,0,21.427-2.098,31.129-6.279
				c9.7-4.184,18.116-9.872,25.218-17.074c7.114-7.19,12.771-15.637,16.95-25.344c4.177-9.709,6.274-20.002,6.274-30.882
				c0-10.708-2.098-20.482-6.274-29.364c-4.178-8.861-9.836-16.488-16.95-22.839c-7.102-6.36-15.515-11.305-25.218-14.813
				C12869.026,3100.196,12858.646,3098.436,12847.601,3098.436z"/>
			<path fill="#FFFFFF" d="M12847.601,2965.81c-15.391,0-30.201-1.958-44.433-5.892c-14.22-3.929-27.397-9.454-39.528-16.57
				c-12.137-7.114-23.188-15.65-33.131-25.605c-9.959-9.951-18.461-21.04-25.485-33.265c-7.027-12.203-12.458-25.393-16.304-39.527
				c-3.855-14.144-5.783-28.9-5.783-44.3c0-22.755,4.232-44.144,12.682-64.143c8.455-19.989,20.089-37.403,34.9-52.206
				c14.806-14.819,32.203-26.519,52.205-35.141c20.004-8.618,41.631-12.935,64.883-12.935c15.404,0,30.168,1.971,44.305,5.901
				c14.152,3.936,27.326,9.456,39.537,16.567c12.221,7.118,23.309,15.645,33.264,25.606c9.957,9.956,18.495,21.038,25.602,33.257
				c7.118,12.213,12.598,25.317,16.443,39.285c3.844,13.981,5.773,28.573,5.773,43.803c0,15.397-1.93,30.162-5.773,44.306
				c-3.846,14.131-9.325,27.324-16.443,39.525c-7.106,12.218-15.645,23.299-25.602,33.258c-9.955,9.962-21.033,18.494-33.264,25.612
				c-12.211,7.104-25.385,12.629-39.537,16.56C12877.768,2963.852,12863.005,2965.81,12847.601,2965.81z M12847.601,2874.191
				c11.048,0,21.378-1.707,31.004-5.146c9.619-3.421,17.951-8.281,24.969-14.554c7.02-6.283,12.601-13.889,16.699-22.843
				c4.093-8.948,6.15-19.041,6.15-30.241c0-10.884-2.058-20.713-6.15-29.499c-4.099-8.783-9.668-16.223-16.699-22.333
				c-7.024-6.114-15.35-10.803-24.969-14.069c-9.617-3.264-19.949-4.884-31.004-4.884c-10.705,0-20.906,1.62-30.62,4.884
				c-9.702,3.257-18.236,7.948-25.604,14.069c-7.36,6.111-13.178,13.541-17.437,22.333c-4.264,8.794-6.396,18.615-6.396,29.499
				c0,11.22,2.126,21.304,6.396,30.241c4.266,8.954,10.082,16.568,17.437,22.843c7.374,6.269,15.901,11.133,25.604,14.554
				C12826.691,2872.488,12836.896,2874.191,12847.601,2874.191z"/>
			<path fill="#FFFFFF" d="M12995.7,2355.407c-3.347-1.175-7.038-1.911-11.041-2.259c-4.026-0.327-8.209-0.496-12.563-0.496
				c-1.512,0-2.639,0-3.377,0c-0.758,0-1.389,0.045-1.885,0.123c-0.504,0.092-1.133,0.126-1.883,0.126c-0.753,0-1.885,0-3.387,0
				c5.188,4.858,10.287,9.791,15.311,14.808c5.021,5.017,9.504,10.587,13.431,16.698c3.934,6.105,7.118,13.001,9.543,20.708
				c2.431,7.69,3.644,16.649,3.644,26.855c0,22.589-3.844,43.512-11.554,62.761c-7.684,19.242-18.443,35.892-32.242,49.941
				c-13.806,14.054-30.337,25.017-49.581,32.894c-19.236,7.86-40.414,11.792-63.508,11.792c-22.928,0-44.387-3.932-64.375-11.792
				c-19.994-7.877-37.41-18.832-52.219-32.894c-14.809-14.061-26.441-30.699-34.893-49.941
				c-8.441-19.249-12.678-40.171-12.678-62.761c0-10.379,1.184-19.83,3.52-28.356c2.346-8.531,5.563-16.354,9.654-23.477
				c4.101-7.104,8.919-13.59,14.436-19.455c5.518-5.849,11.375-11.281,17.578-16.304l-22.347-7.027
				c-2.848-1.003-5.434-1.92-7.777-2.761c-2.349-0.831-4.311-1.92-5.896-3.256c-1.596-1.339-2.809-3.059-3.646-5.146
				c-0.835-2.098-1.251-4.822-1.251-8.17v-37.396c0-2.347,0.416-4.681,1.251-7.032c0.837-2.348,2.013-4.467,3.511-6.389
				c1.508-1.932,3.432-3.487,5.777-4.648c2.344-1.163,5.02-1.757,8.03-1.757h255.515c26.116,0,49.374,4.264,69.79,12.805
				c20.417,8.525,37.649,20.196,51.706,35.014c14.063,14.81,24.767,32.344,32.132,52.584c7.371,20.244,11.047,42.003,11.047,65.256
				c0,9.036-0.798,18.75-2.385,29.118c-1.592,10.377-3.988,20.707-7.149,30.996c-3.168,10.296-7.241,20.252-12.18,29.864
				c-4.934,9.624-10.679,18.121-17.193,25.485c-1.834,2.51-4.139,4.65-6.896,6.4c-2.763,1.763-5.811,2.64-9.162,2.64
				c-4.186,0-8.618-1.59-13.309-4.769l-32.885-23.839c-2.497-2.347-4.385-4.529-5.641-6.524c-1.263-2.023-1.88-4.192-1.88-6.544
				c0-3.672,2.011-8.273,6.02-13.797c4.017-4.182,7.234-8.992,9.657-14.438c2.431-5.436,4.35-11.038,5.769-16.81
				c1.427-5.773,2.342-11.468,2.761-17.069c0.416-5.607,0.626-10.673,0.626-15.188c0-7.535-1.001-15.398-3.009-23.594
				c-2.013-8.201-4.978-15.848-8.911-22.973c-3.934-7.104-8.736-13.382-14.419-18.826
				C13009.598,2361.141,13003.067,2357.421,12995.7,2355.407z M12846.596,2498.99c11.226,0,21.638-1.71,31.268-5.152
				c9.606-3.42,17.946-8.313,24.96-14.671c7.031-6.363,12.553-14.021,16.575-22.981c4.021-8.945,6.02-18.864,6.02-29.748
				c0-10.699-1.882-20.783-5.647-30.237c-3.77-9.448-9-17.696-15.693-24.728c-6.688-7.021-14.57-12.668-23.598-16.932
				c-9.033-4.27-18.824-6.655-29.366-7.149h-8.29c-10.205,0.494-19.862,2.885-28.991,7.149c-9.122,4.27-17.15,9.912-24.101,16.932
				c-6.945,7.038-12.463,15.28-16.563,24.728c-4.104,9.454-6.154,19.53-6.154,30.237c0,10.897,2.132,20.803,6.4,29.748
				c4.271,8.952,9.992,16.61,17.188,22.981c7.195,6.358,15.646,11.255,25.347,14.671
				C12825.687,2497.265,12835.895,2498.99,12846.596,2498.99z"/>
			<path fill="#FFFFFF" d="M12706.538,2200.542c-3.188,0-5.947-0.576-8.291-1.764c-2.33-1.172-4.26-2.705-5.768-4.637
				c-1.508-1.919-2.64-4.095-3.39-6.522c-0.75-2.437-1.123-4.821-1.123-7.157v-37.895c0-4.201,1.249-7.542,3.768-10.051
				c2.505-2.506,5.694-4.627,9.539-6.393c3.844-1.768,8.119-3.302,12.81-4.643c4.676-1.332,9.198-2.932,13.549-4.761
				c-5.52-5.034-10.968-10.004-16.32-14.938c-5.348-4.939-10.115-10.252-14.307-15.94c-4.193-5.693-7.566-11.932-10.168-18.694
				c-2.596-6.801-3.898-14.527-3.898-23.231c0-9.035,0.679-17.108,2.018-24.221c1.338-7.107,3.31-13.841,5.897-20.209
				c2.608-6.353,5.904-12.668,9.923-18.944c4.01-6.283,8.703-13.086,14.057-20.458c4.195-7.196,9.125-10.787,14.813-10.787
				c3.678,0,7.941,1.418,12.803,4.258l38.901,22.841c6.534,4.521,9.798,10.13,9.798,16.821c0,3.349-0.924,7.117-2.769,11.303
				c-7.022,7.203-12.255,14.511-15.689,21.96c-3.419,7.442-5.14,15.941-5.14,25.479c0,6.537,0.923,12.256,2.764,17.188
				c1.828,4.938,4.428,9.417,7.768,13.439c3.357,4.015,7.377,7.784,12.055,11.296c4.68,3.507,9.879,7.026,15.568,10.54h181.725
				c6.357,0,11.17,1.547,14.436,4.628c3.258,3.11,4.882,8.255,4.882,15.445v56.479c0,13.048-6.44,19.583-19.322,19.583h-280.888
				v-0.018h0.002V2200.542z"/>
			<path fill="#FFFFFF" d="M12988.168,1591.06c2.845,0,5.56,0.518,8.16,1.515c2.6,0.998,4.632,2.676,6.148,5.021
				c1.832,1.833,3.009,4.01,3.504,6.53c0.504,2.515,0.759,4.684,0.759,6.527v49.449c0,3.521-0.458,6.366-1.378,8.536
				c-0.927,2.169-2.226,3.932-3.898,5.271c-1.663,1.344-3.722,2.474-6.146,3.389c-2.422,0.92-5.068,1.879-7.905,2.885l-11.299,3.271
				c4.522,4.513,8.955,9.652,13.305,15.424c4.362,5.774,8.246,12.139,11.673,19.09c3.437,6.947,6.186,14.385,8.281,22.33
				c2.091,7.948,3.142,16.191,3.142,24.729c0,15.217-1.927,29.831-5.771,43.799c-3.848,13.977-9.327,27.028-16.445,39.152
				c-7.104,12.14-15.636,23.131-25.602,33.012c-9.947,9.866-21.035,18.368-33.258,25.479c-12.213,7.118-25.389,12.588-39.541,16.436
				c-14.126,3.851-28.902,5.78-44.301,5.78c-23.267,0-44.887-4.273-64.887-12.806c-19.991-8.532-37.4-20.159-52.21-34.888
				c-14.809-14.728-26.44-32.045-34.904-51.96c-8.44-19.918-12.673-41.251-12.673-64.003c0-10.38,1.185-20.038,3.528-29.005
				c2.342-8.937,5.503-17.134,9.532-24.593c4.023-7.443,8.832-14.18,14.438-20.196c5.601-6.019,11.669-11.298,18.192-15.818
				l-22.841-7.273c-4.18-1.673-7.575-3.057-10.178-4.146c-2.584-1.091-4.509-2.258-5.765-3.513
				c-1.254-1.253-2.089-2.794-2.499-4.637c-0.425-1.842-0.626-4.432-0.626-7.79v-37.399c0-1.835,0.24-4.014,0.744-6.529
				c0.506-2.514,1.674-4.687,3.519-6.522c1.834-2.352,3.929-4.023,6.271-5.028c2.349-0.999,5.021-1.512,8.033-1.512
				L12988.168,1591.06L12988.168,1591.06z M12847.601,1838.314c11.048,0,21.378-1.726,31.004-5.159
				c9.619-3.421,17.951-8.318,24.969-14.678c7.029-6.369,12.601-14.016,16.699-22.976c4.093-8.947,6.15-18.872,6.15-29.742
				c0-11.208-2.058-21.63-6.15-31.255c-4.099-9.618-9.668-17.984-16.699-25.101c-7.024-7.111-15.35-12.683-24.969-16.698
				c-9.617-4.017-19.949-6.03-31.004-6.03c-10.705,0-20.906,2.013-30.62,6.03c-9.702,4.014-18.236,9.581-25.604,16.698
				c-7.36,7.111-13.178,15.475-17.437,25.101c-4.271,9.624-6.396,20.047-6.396,31.255c0,10.877,2.126,20.795,6.396,29.742
				c4.266,8.947,10.082,16.607,17.437,22.976c7.374,6.36,15.901,11.256,25.604,14.678
				C12826.691,1836.588,12836.896,1838.314,12847.601,1838.314z"/>
			<path fill="#FFFFFF" d="M12690.974,1524.321c-1.84-2.174-3.007-4.435-3.525-6.783c-0.486-2.336-0.746-4.598-0.746-6.776v-37.902
				c0-3.187,0.5-5.811,1.516-7.907c1-2.083,2.369-3.797,4.136-5.146c1.76-1.341,3.768-2.475,6.021-3.383
				c2.26-0.915,4.729-1.804,7.408-2.643l30.369-10.535c-6.025-4.688-12.168-9.419-18.445-14.184
				c-6.275-4.772-11.963-10.42-17.069-16.955c-5.106-6.527-9.334-14.31-12.675-23.343c-3.353-9.032-5.033-20.079-5.033-33.126
				c0-22.927,4.231-44.06,12.674-63.384c8.461-19.327,20.094-35.974,34.902-49.948c14.813-13.98,32.212-24.895,52.205-32.762
				c20.002-7.854,41.631-11.793,64.893-11.793c23.09,0,44.678,3.939,64.758,11.793c20.08,7.879,37.527,18.79,52.332,32.762
				c14.809,13.967,26.481,30.622,35.02,49.948c8.536,19.325,12.808,40.449,12.808,63.384c0,10.87-1.297,20.244-3.89,28.111
				c-2.586,7.867-5.989,14.85-10.167,20.955c-4.18,6.111-8.782,11.513-13.799,16.187c-5.037,4.697-10.047,9.3-15.063,13.813h116.965
				c5.019,0,9.294,1.508,12.809,4.518c3.509,3.017,5.266,7.699,5.266,14.058v57.48c0,2.011-0.418,4.183-1.251,6.522
				c-0.835,2.35-2.015,4.525-3.521,6.536c-1.502,2.01-3.38,3.675-5.641,5.021c-2.266,1.341-4.82,2.007-7.659,2.007h-381.287
				c-3.342,0-6.109-0.63-8.287-1.884C12694.823,1527.717,12692.812,1526.161,12690.974,1524.321z M12847.601,1289.876
				c-10.705,0-20.87,1.763-30.494,5.274c-9.633,3.512-18.024,8.455-25.227,14.804c-7.203,6.362-12.885,13.972-17.076,22.842
				c-4.177,8.875-6.276,18.662-6.276,29.374c0,10.541,1.964,20.536,5.911,29.994c3.931,9.455,9.283,17.744,16.049,24.845
				c6.789,7.112,14.775,12.898,23.975,17.324c9.207,4.427,19,6.896,29.382,7.405h3.763c11.042,0,21.427-2.09,31.129-6.276
				c9.703-4.186,18.116-9.874,25.218-17.074c7.114-7.2,12.771-15.641,16.95-25.35c4.177-9.703,6.274-19.992,6.274-30.876
				c0-10.71-2.098-20.497-6.274-29.372c-4.178-8.875-9.836-16.481-16.95-22.84c-7.102-6.367-15.515-11.303-25.218-14.813
				C12869.026,1291.639,12858.646,1289.876,12847.601,1289.876z"/>
			<path fill="#FFFFFF" d="M12721.487,1051.077c-4.66-3.179-9.304-7.563-13.891-13.181c-4.597-5.604-8.678-12.047-12.263-19.325
				c-3.577-7.274-6.509-15.347-8.761-24.224c-2.252-8.869-3.371-18.235-3.371-28.11c0-19.085,3.668-35.604,11-49.579
				c7.35-13.967,17.367-25.506,30.039-34.637c12.685-9.121,27.506-15.895,44.463-20.332c16.958-4.434,35.057-6.653,54.301-6.653
				h164.41c6.362,0,11.166,1.376,14.423,4.136c3.265,2.763,4.901,7.158,4.901,13.184v57.978c0,7.2-1.219,12.135-3.646,14.815
				c-2.424,2.675-7.158,4.016-14.179,4.016h-165.912c-7.191,0-13.889,1.383-20.079,4.14c-6.194,2.769-11.586,6.493-16.195,11.165
				c-4.604,4.69-8.196,10.172-10.786,16.444c-2.599,6.272-3.892,12.926-3.892,19.955c0,6.018,1.212,11.928,3.637,17.694
				c2.42,5.767,5.862,10.965,10.286,15.563c4.431,4.603,9.751,8.454,15.937,11.548c6.198,3.097,13.064,4.888,20.597,5.389h165.656
				c2.852,0,5.699,0.55,8.527,1.635c2.854,1.094,5.03,2.718,6.534,4.893c1.344,2.179,2.264,4.228,2.756,6.151
				c0.504,1.929,0.759,4.147,0.759,6.655v56.73c0,7.189-1.762,12.387-5.276,15.562c-3.508,3.173-8.197,4.766-14.061,4.766h-204.325
				h-1.75h-74.664h-1.258h-93.126c-5.688,0-10.293-1.585-13.799-4.766c-3.517-3.183-5.276-8.374-5.276-15.562v-56.73
				c0-3.846,1.346-8.114,4.016-12.807c1.512-2.174,3.691-3.797,6.537-4.893c2.848-1.084,5.51-1.635,8.032-1.635L12721.487,1051.077
				L12721.487,1051.077z"/>
			<path fill="#FFFFFF" d="M12712.048,814.192c-6.687,2.674-12.414,2.715-17.178,0.117c-4.767-2.591-7.154-8.316-7.154-17.19
				v-61.991c0-4.182,1.293-7.611,3.895-10.293c2.599-2.675,5.813-4.672,9.656-6.024l202.057-71.035l-202.057-69.535
				c-5.35-1.833-8.945-4.179-10.801-7.018c-1.834-2.853-2.752-6.789-2.752-11.808v-64.504c0-4.682,0.631-8.359,1.887-11.042
				c1.251-2.683,2.924-4.559,5.021-5.647c2.08-1.093,4.429-1.467,7.021-1.131c2.605,0.332,5.148,0.998,7.657,2.012
				c15.729,6.358,32.925,13.301,51.589,20.83c18.648,7.53,38.063,15.352,58.234,23.467c20.158,8.119,40.653,16.358,61.492,24.723
				c20.829,8.371,41.296,16.522,61.375,24.471c20.082,7.951,39.365,15.609,57.852,22.97c18.489,7.369,35.479,14.101,50.949,20.203
				c15.48,6.119,29.09,11.42,40.794,15.944c11.726,4.517,20.752,7.95,27.117,10.29l-1.256-0.749
				c4.52,1.169,8.158,3.263,10.912,6.271c2.769,3.017,4.145,6.692,4.145,11.045v57.985c0,7.53-1.472,12.676-4.387,15.428
				c-2.933,2.771-7.243,4.154-12.929,4.154c-2.183,0-3.854-0.293-5.03-0.883c-1.173-0.579-1.919-1.033-2.259-1.383l-102.407-39.405
				L12712.048,814.192z"/>
		</g>
	</g>
</g>
<g>
	<line fill="none" x1="-1625.851" y1="4821.47" x2="-1625.847" y2="2612.478"/>
	<path fill="#E8EFF1" d="M-1923.601,4429.19c1.44-2.448,3.319-4.25,5.621-5.407c2.307-1.146,5.049-0.935,8.217,0.649l51.896,36.543
		c2.45,1.587,3.856,3.278,4.216,5.082c0.361,1.807-0.253,4.006-1.838,6.594c-5.33,7.067-9.438,14.848-12.324,23.352
		c-2.884,8.506-4.325,17.517-4.325,27.029c0,11.822,2.237,22.705,6.703,32.65c4.47,9.942,10.595,18.524,18.379,25.731
		c7.786,7.207,16.866,12.832,27.246,16.865c10.378,4.037,21.481,6.059,33.299,6.059c11.821,0,22.888-2.021,33.192-6.059
		c10.308-4.033,19.32-9.658,27.027-16.865c7.712-7.207,13.809-15.781,18.271-25.731c4.47-9.945,6.703-20.828,6.703-32.65
		c0-9.514-1.477-18.594-4.433-27.244c-2.951-8.648-7.095-16.504-12.435-23.57c-1.584-2.592-2.233-4.76-1.944-6.484
		c0.287-1.735,1.585-3.46,3.892-5.19l53.193-36.976c3.171-1.586,5.838-1.803,8-0.649c2.163,1.154,3.969,2.957,5.406,5.414
		c9.082,13.55,16.108,28.145,21.084,43.779c4.972,15.646,7.459,32.112,7.459,49.414c0,15.28-1.945,29.948-5.838,44
		c-3.894,14.058-9.438,27.215-16.651,39.459c-7.203,12.26-15.815,23.396-25.838,33.415c-10.019,10.019-21.115,18.625-33.301,25.831
		c-12.181,7.217-25.299,12.766-39.353,16.65c-14.057,3.896-28.725,5.839-44.004,5.839c-15.275,0-29.949-1.942-44.002-5.839
		c-14.057-3.891-27.246-9.435-39.571-16.65c-12.324-7.206-23.534-15.813-33.625-25.831c-10.085-10.02-18.703-21.155-25.838-33.415
		c-7.138-12.247-12.681-25.405-16.649-39.459c-3.963-14.056-5.946-28.72-5.946-44c0-17.302,2.415-33.619,7.244-48.972
		C-1939.64,4457.196-1932.683,4442.745-1923.601,4429.19z"/>
	<path fill="#E8EFF1" d="M-1786.083,4403.452c-15.275,0-29.947-1.947-44.001-5.842c-14.058-3.899-27.246-9.449-39.571-16.658
		c-12.324-7.211-23.533-15.83-33.625-25.856c-10.086-10.025-18.703-21.169-25.838-33.435c-7.137-12.258-12.682-25.422-16.65-39.488
		c-3.963-14.063-5.945-28.74-5.945-44.028c0-15.144,1.982-29.788,5.945-43.923c3.969-14.137,9.514-27.333,16.65-39.602
		c7.135-12.262,15.752-23.438,25.838-33.541c10.095-10.092,21.301-18.711,33.625-25.854c12.326-7.137,25.516-12.697,39.571-16.66
		c14.054-3.963,28.722-5.951,44.001-5.951s29.948,1.988,44.004,5.951c14.055,3.962,27.172,9.523,39.354,16.66
		c12.182,7.144,23.283,15.768,33.301,25.854c10.019,10.103,18.631,21.278,25.838,33.541c7.213,12.27,12.758,25.459,16.65,39.602
		c3.893,14.135,5.838,28.779,5.838,43.923c0,15.288-1.945,29.969-5.838,44.028c-3.893,14.072-9.438,27.233-16.65,39.488
		c-7.203,12.266-15.815,23.408-25.838,33.435c-10.019,10.026-21.117,18.646-33.301,25.856
		c-12.182,7.209-25.299,12.762-39.354,16.658C-1756.136,4401.504-1770.804,4403.452-1786.083,4403.452z M-1786.298,4319.77
		c11.964,0,23.137-2.012,33.514-6.046c10.381-4.027,19.431-9.685,27.139-16.951c7.712-7.269,13.768-15.873,18.163-25.803
		c4.396-9.933,6.595-20.878,6.595-32.823s-2.199-22.926-6.595-32.939c-4.396-10.002-10.451-18.636-18.163-25.91
		c-7.708-7.27-16.757-12.92-27.139-16.947c-10.377-4.036-21.549-6.054-33.514-6.054c-11.82,0-22.952,2.018-33.408,6.054
		c-10.447,4.031-19.568,9.678-27.354,16.947c-7.785,7.271-13.91,15.908-18.379,25.91c-4.467,10.014-6.703,20.989-6.703,32.939
		c0,11.946,2.235,22.892,6.703,32.823c4.47,9.93,10.595,18.534,18.379,25.803c7.785,7.268,16.906,12.928,27.354,16.951
		C-1809.25,4317.758-1798.116,4319.77-1786.298,4319.77z"/>
	<path fill="#E8EFF1" d="M-1937.662,4027.394c-2.594,0-4.829-0.868-6.702-2.598c-1.869-1.729-2.812-4.105-2.812-7.137v-63.998
		c0-2.453,0.865-4.686,2.594-6.705c1.73-2.021,4.038-3.099,6.919-3.248h235.26v-118.927c0-2.588,0.866-4.824,2.595-6.701
		c1.73-1.87,4.11-2.813,7.137-2.813h56.869c2.451,0,4.686,0.834,6.703,2.488c2.018,1.657,3.1,4,3.244,7.025v193.102
		c0,6.342-3.172,9.517-9.516,9.517h-302.291V4027.394L-1937.662,4027.394z"/>
	<path fill="#E8EFF1" d="M-1786.083,3789.392c-15.275,0-29.947-1.943-44.001-5.842c-14.058-3.892-27.246-9.442-39.571-16.658
		c-12.324-7.213-23.533-15.826-33.625-25.858c-10.086-10.022-18.703-21.164-25.838-33.428c-7.137-12.263-12.682-25.427-16.65-39.49
		c-3.963-14.063-5.945-28.742-5.945-44.033c0-15.136,1.982-29.782,5.945-43.92c3.969-14.137,9.514-27.339,16.65-39.599
		c7.135-12.266,15.752-23.442,25.838-33.539c10.095-10.098,21.301-18.716,33.625-25.855c12.326-7.142,25.516-12.695,39.571-16.662
		c14.054-3.966,28.722-5.948,44.001-5.948s29.948,1.982,44.004,5.948c14.055,3.967,27.172,9.521,39.354,16.662
		c12.182,7.14,23.283,15.758,33.301,25.855c10.019,10.093,18.631,21.273,25.838,33.539c7.213,12.26,12.758,25.458,16.65,39.599
		c3.893,14.14,5.838,28.784,5.838,43.92c0,15.291-1.945,29.97-5.838,44.033c-3.893,14.069-9.438,27.229-16.65,39.49
		c-7.203,12.264-15.815,23.403-25.838,33.428c-10.019,10.032-21.117,18.646-33.301,25.858
		c-12.182,7.216-25.299,12.768-39.354,16.658C-1756.136,3787.449-1770.804,3789.392-1786.083,3789.392z M-1786.298,3705.708
		c11.964,0,23.137-2.015,33.514-6.046c10.381-4.03,19.431-9.686,27.139-16.95c7.712-7.271,13.768-15.873,18.163-25.806
		c4.396-9.928,6.595-20.874,6.595-32.825c0-11.941-2.199-22.922-6.595-32.929c-4.396-10.008-10.451-18.646-18.163-25.916
		c-7.708-7.272-16.757-12.923-27.139-16.952c-10.377-4.031-21.549-6.05-33.514-6.05c-11.82,0-22.952,2.019-33.408,6.05
		c-10.447,4.031-19.568,9.68-27.354,16.952c-7.785,7.267-13.91,15.908-18.379,25.916c-4.467,10.007-6.703,20.981-6.703,32.929
		c0,11.951,2.235,22.896,6.703,32.825c4.47,9.933,10.595,18.535,18.379,25.806c7.785,7.266,16.906,12.924,27.354,16.95
		C-1809.25,3703.695-1798.116,3705.708-1786.298,3705.708z"/>
	<path fill="#E8EFF1" d="M-1937.013,3405.343c-3.026,0-5.438-0.784-7.244-2.379c-1.801-1.582-2.701-3.963-2.701-7.133v-139.685
		c0-14.849,2.773-28.761,8.324-41.737c5.549-12.97,13.082-24.287,22.595-33.95c9.517-9.65,20.649-17.26,33.409-22.81
		c12.758-5.553,26.35-8.323,40.759-8.323c9.804,0,19.138,1.336,28.002,3.999c8.865,2.67,17.159,6.377,24.866,11.137
		c7.713,4.756,14.703,10.42,20.977,16.972c6.271,6.565,11.64,13.733,16.108,21.515l104.655-55.57c2.022-1.01,4.4-2.308,7.137-3.896
		c2.738-1.586,5.116-2.378,7.135-2.378c2.311,0,4.076,0.756,5.299,2.269c1.225,1.513,1.837,3.57,1.837,6.162v74.166
		c0,2.449-0.722,4.648-2.163,6.593c-1.438,1.944-3.384,3.207-5.838,3.782l-98.818,52.543v35.029h97.521
		c6.2,0,9.299,3.319,9.299,9.944v64.222c0,2.89-0.757,5.188-2.271,6.921c-1.516,1.732-3.857,2.594-7.029,2.594h-301.857V3405.343
		L-1937.013,3405.343z M-1841.001,3236.036c-4.325,0-8.648,0.79-12.975,2.377c-4.322,1.584-8.283,3.82-11.892,6.702
		c-3.599,2.887-6.628,6.348-9.082,10.383c-2.449,4.036-4.032,8.506-4.757,13.41c-0.288,4.036-0.542,7.817-0.757,11.352
		c-0.217,3.534-0.325,7.393-0.325,11.567v29.841h79.357v-39.789c0-2.592-0.074-4.899-0.217-6.921
		c-0.144-2.019-0.356-4.256-0.648-6.702c-0.576-5.05-2.055-9.59-4.432-13.625c-2.381-4.031-5.334-7.426-8.865-10.16
		c-3.533-2.736-7.498-4.828-11.894-6.271C-1831.884,3236.759-1836.388,3236.036-1841.001,3236.036z"/>
	<path fill="#E8EFF1" d="M-1729.642,3061.095c2.019-2.449,4.725-5.584,8.108-9.405c3.388-3.821,6.74-8.183,10.056-13.088
		c4.899-7.354,8.721-14.626,11.459-21.841c2.739-7.207,4.108-14.771,4.108-22.705c0-7.352-0.829-13.514-2.483-18.487
		c-1.658-4.968-3.855-8.896-6.59-11.778c-2.737-2.882-5.901-4.939-9.506-6.165c-3.604-1.223-7.42-1.836-11.453-1.836
		c-4.463,0-8.459,1.695-11.99,5.08c-3.526,3.394-6.662,7.539-9.396,12.435c-2.74,4.9-5.079,10.019-7.021,15.352
		c-1.943,5.335-3.563,9.941-4.862,13.841c-6.046,17.295-12.563,32.433-19.552,45.407c-6.988,12.974-14.764,23.784-23.333,32.432
		c-8.567,8.655-18.008,15.139-28.302,19.465c-10.293,4.324-21.783,6.486-34.46,6.486c-13.396,0-25.569-2.703-36.517-8.111
		c-10.942-5.403-20.309-13.111-28.084-23.13c-7.776-10.018-13.787-22.094-18.037-36.22c-4.252-14.128-6.375-29.915-6.375-47.354
		c0-13.116,1.482-25.696,4.434-37.733c2.954-12.041,7.676-23.901,14.164-35.576c2.887-4.896,5.874-9.546,8.973-13.94
		c3.104-4.398,6.09-8.256,8.975-11.576c2.887-3.309,5.621-5.939,8.215-7.892c2.596-1.948,4.833-2.919,6.705-2.919
		c1.873,0,3.604,0.469,5.189,1.405c1.584,0.938,3.388,2.347,5.405,4.216l35.245,33.09c2.456,2.448,3.676,4.901,3.676,7.353
		c0,2.017-0.57,3.856-1.729,5.514c-1.153,1.658-2.595,3.497-4.326,5.515l-1.729,1.939c-2.451,2.889-4.974,6.091-7.569,9.622
		c-2.594,3.536-4.933,7.322-7.026,11.353c-2.086,4.041-3.819,8.291-5.188,12.764c-1.369,4.466-2.056,9.011-2.056,13.617
		c0,4.76,0.401,9.231,1.19,13.412c0.793,4.181,2.054,7.856,3.785,11.027c1.729,3.172,4,5.694,6.811,7.567
		c2.811,1.878,6.232,2.813,10.271,2.813c4.035,0,7.531-1.008,10.485-3.026c2.956-2.018,5.7-5.045,8.218-9.088
		c2.521-4.031,4.902-9.045,7.135-15.028c2.238-5.979,4.648-12.931,7.243-20.866c5.05-15.273,10.343-29.372,15.896-42.271
		c5.549-12.899,12.107-24.037,19.676-33.406c7.566-9.374,16.613-16.686,27.137-21.949c10.523-5.256,23.281-7.893,38.273-7.893
		c15.856,0,30.234,3.244,43.138,9.731c12.901,6.487,23.894,15.39,32.976,26.703c9.082,11.319,16.108,24.615,21.082,39.896
		c4.973,15.28,7.459,31.717,7.459,49.306c0,16.577-2.965,32.868-8.888,48.868c-5.926,16.004-13.88,30.92-23.856,44.761
		c-4.193,5.768-8.313,10.631-12.362,14.592c-4.048,3.97-7.299,7.103-9.757,9.413l-0.652,0.648c-0.289,0.146-0.47,0.285-0.543,0.428
		c-0.071,0.144-0.176,0.292-0.328,0.433c-0.287,0.146-0.467,0.291-0.541,0.427c-0.071,0.148-0.176,0.293-0.324,0.436
		c-3.615,3.316-6.508,4.974-8.678,4.974c-2.453,0-5.201-1.657-8.24-4.974l-35.68-37.408c-2.16-3.027-3.241-5.479-3.241-7.352
		c0-1.299,0.433-2.666,1.296-4.109C-1732.668,3064.841-1731.373,3063.117-1729.642,3061.095z"/>
</g>
</svg>
