<?xml version="1.0" encoding="utf-8"?>
<!-- Generator: Adobe Illustrator 16.0.3, SVG Export Plug-In . SVG Version: 6.00 Build 0)  -->
<!DOCTYPE svg PUBLIC "-//W3C//DTD SVG 1.1//EN" "http://www.w3.org/Graphics/SVG/1.1/DTD/svg11.dtd">
<svg version="1.1" id="Capa_1" xmlns="http://www.w3.org/2000/svg" xmlns:xlink="http://www.w3.org/1999/xlink" x="0px" y="0px"
	 width="4345.596px" height="842.781px" viewBox="0 0 4345.596 842.781" enable-background="new 0 0 4345.596 842.781"
	 xml:space="preserve">
<path fill="#F2F4F5" d="M517.715,155.858c19.361,8.249,44.737,3.106,65.826,4.025c34.713,1.525,69.699,5.564,104.548,7.938
	c83.199,5.703,167.247,24.35,247.815,44.549c165.417,41.471,316.242,123.184,480.141,168.402
	c36.219,9.995,71.505,21.543,108.42,29.102c12.444,2.545,28.23,12.332,40.979,12.211c21.132-0.201,41.322-23.291,59.695-32.472
	c34.847-17.698,74.24-32.139,112.289-42.968c132.898-37.843,268.391-53.416,406.569-47.369
	c105.644,4.625,218.089,27.389,317.514,66.461c37.579,14.765,72.559,34.063,108.423,51.838
	c18.449,9.465,35.929,25.953,57.119,27.722c120.035,8.645,239.715-16.962,353.322-55.241c40.536-13.49,80.904-30.515,120.037-47.803
	c17.914-7.918,37.939-22.386,58.082-22.591c25.316-0.265,53.081,10.671,77.439,16.73c51.827,13.067,103.345,25.474,154.887,40.172
	c161.547,43.637,319.472,89.279,487.887,96.802c50.339,2.063,98.739,2.913,149.076,0.628c25.232-1.146,63.69-2.249,87.125-11.694
	c22.721-9.159,44.746-29.848,65.82-42.949c50.299-31.174,118.211-68.533,178.119-73.766
	c-42.842-41.494-95.51-73.151-147.142-102.317c-109.465-61.843-232.326-96.317-356.233-111.758
	c-112.637-14.018-223.397-17.308-332.998,18.377c-90.129,29.34-174.246,70.988-259.437,110.96
	c-34.979,16.336-80.358,52.772-120.036,52.696c-33.092-0.063-68.552-13.314-100.674-20.162
	c-39.169-8.356-80.457-13.627-120.033-20.108c-38.724-6.201-77.688-6.716-116.165-9.004
	c-60.716-3.872-121.014-11.616-181.987-11.616c-74.309,0-147.142,2.336-220.716,7.744c-21.858,1.149-44.014-1.675-65.823,0.672
	c-26.31,3.2-56.037,10.944-81.313,18.688c-16.124,4.61-32.854,14.623-50.341,11.9c-18.423-2.875-34.849-17.414-50.335-26.183
	c-34.85-18.959-69.698-36.872-104.549-54.454c-92.136-46.065-191.16-83.978-290.41-111.612
	c-269.82-75.102-547.368-90.443-824.76-50.817C792.638,68.999,654.583,112.007,517.715,155.858z"/>
<path fill="#F2F5F6" d="M-16.636,430.778l20.476,6.717c3.575-23.089,14.374-35.375,33.734-47.078
	c26.765-16.71,53.329-34.414,81.315-48.696c92.25-48.409,181.988-96.803,278.789-136.628c35.647-14.385,71.209-31.525,108.42-41.49
	c-31.03-13.014-68.801,1.289-100.673,3.872c-103.064,6.887-203.238,28.176-302.025,58.528
	c-28.992,8.905-57.271,18.915-85.187,30.531c-9.751,4.106-24.656,7.906-30.978,17.152c-7.744,11.385-3.872,31.774-3.872,44.801
	L-16.636,430.778L-16.636,430.778z"/>
<path fill="#EDF1F2" d="M1567.058,423.033c-25.341-15.488-60.438-16.924-89.059-24.873
	c-62.873-17.474-124.801-36.811-185.859-59.957c-87.876-33.307-173.559-72.475-263.304-100.917
	c-120.726-38.259-245.325-65.071-371.4-73.359c-47.198-3.577-96.101-10.005-143.593-3.385
	c-21.995,3.067-41.528,13.696-61.952,21.531c-41.768,16.381-82.976,32.74-123.908,51.231
	c-87.875,38.721-173.287,83.545-255.56,133.199C52.696,378.406,0,399.806,0,426.91c0,10.713,10.089,16.831,18.214,22.265
	c19.173,12.666,38.721,24.625,58.082,37.012c84.962,54.597,171.722,94.366,266.693,127.069
	c170.277,58.646,367.02,73.413,546.45,61.473c26.086-2.134,66.973-7.852,92.873-11.063
	c116.813-11.727,220.434-37.365,329.188-83.523c50.338-21.521,101.903-46.393,147.139-77.991
	C1495.225,477.244,1528.242,445.147,1567.058,423.033z"/>
<path fill="#E6ECF0" stroke="#E6ECF0" stroke-width="5" stroke-miterlimit="10" d="M-16.636,430.778v429.804h4383.233V341.721
	c-78.812,15.488-158.976,53.256-224.584,99.204c-49.242,34.486-92.932,75.225-147.142,102.145
	c-214.737,105.162-462.258,147.646-700.852,131.653c-164.492-11.613-334.854-48.867-484.016-121.034
	c-121.851-58.967-228.737-144.771-356.237-192.415c-68.864-25.728-126.878-44.073-199.411-54.401
	c-12.091-2.259-36.783-5.382-48.4-6.53c-10.332-0.983-20.586-3.05-30.978-3.857c-56.63-2.913,16.94-3.648-170.374,2.699
	c-126.243,4.277-265.398,33.941-379.465,88.999c-81.75,38.721-146,103.121-224.585,147.384
	c-108.416,60.786-234.611,98.966-356.233,119.037c-243.939,40.229-511.119,29.581-743.445-59.725
	c-60.469-23.229-122.657-47.945-178.116-82.379C80.168,486.643,31.941,442.396-16.636,430.778z"/>
<path fill="#EDF1F2" d="M2616.4,442.396c61.955,52.439,146.186,92.929,220.707,124.996
	c202.929,87.972,431.74,125.396,652.455,110.65c69.618-5.116,131.059-14.707,199.416-25.905
	c100.457-16.052,202.151-58.729,294.278-101.324c42.229-20.19,98.781-48.144,127.778-85.187c-41.594,0-82.479,6.676-123.903,7.746
	c-121.674,2.922-241.959-12.662-360.753-40.012c-112.289-25.79-224.189-59.17-336.232-85.198
	c-41.592-9.662-89.057-28.973-131.647-29.121c-21.845-0.075-42.597,14.93-61.954,23.211c-40.274,17.793-81.988,35.578-123.908,49.05
	c-75.423,24.23-149.359,43.343-228.459,50.428C2702.234,446.267,2658.529,442.396,2616.4,442.396z"/>
</svg>
