<?xml version="1.0" encoding="utf-8"?>
<!-- Generator: Adobe Illustrator 16.0.3, SVG Export Plug-In . SVG Version: 6.00 Build 0)  -->
<!DOCTYPE svg PUBLIC "-//W3C//DTD SVG 1.1//EN" "http://www.w3.org/Graphics/SVG/1.1/DTD/svg11.dtd">
<svg version="1.1" id="Capa_1" xmlns="http://www.w3.org/2000/svg" xmlns:xlink="http://www.w3.org/1999/xlink" x="0px" y="0px"
	 width="4345.596px" height="723.794px" viewBox="0 0 4345.596 723.794" enable-background="new 0 0 4345.596 723.794"
	 xml:space="preserve">
<rect x="-23.682" y="-25.4" fill="#c7defe" width="4403.404" height="488.554"/>
<g>
	<path fill="none" d="M-23.681,682.804v11.199c0.896,0.121,1.82,0.178,2.769,0.187v-11.635
		C-21.837,682.65-22.759,682.731-23.681,682.804z"/>
	<path fill="none" d="M101.142,702.667c4.689,0.455,9.38,0.965,14.073,1.496v-10.752
		C107.222,695.656,105.053,696.849,101.142,702.667z"/>
	<path fill="none" d="M60.052,699.061c8.28,0.886,16.581,1.914,24.913,2.357c2.467,0.131,4.934,0.3,7.4,0.488
		C81.069,698.033,67.591,692.648,60.052,699.061z"/>
	<path fill="none" d="M12.003,693.432c8.295,9.489,17.556,3.661,31.367,4.255c1.314,0.058,2.63,0.145,3.945,0.233
		c-11.77-3.148-22.632-6.964-34.196-11.746C12.803,689.12,12.51,691.325,12.003,693.432z"/>
	<path fill="none" d="M175.715,704.27c-11.953-1.545-18.798-7.141-26.291,3.373c1.201,0.087,2.402,0.17,3.604,0.244
		c10.096,0,19.773-3.622,29.91-3.032c6.822,0.667,12.803,4.637,19.247,5.121c9.11,0.629,17.727-4.804,26.469-5.496
		c0.045-0.003,0.091-0.006,0.137-0.01c-1.307-0.065-2.613-0.129-3.918-0.202C208.602,702.957,192.097,705.098,175.715,704.27z"/>
	<path fill="none" d="M951.555,427.559c-14.9-3.922-29.783-7.821-44.634-11.821c12.102,3.406,24.232,6.709,36.398,9.871
		C945.997,426.296,948.747,426.941,951.555,427.559z"/>
	<path fill="none" d="M310.591,704.25c18.126-0.105,36.443-1.312,54.818-3.231v-0.743
		C347.178,701.972,328.889,703.353,310.591,704.25z"/>
	<path fill="none" d="M772.202,374.231c-18.795-6.454-37.515-13.079-56.186-19.806c17.621,6.772,35.371,13.174,53.361,18.888
		C770.319,373.62,771.261,373.925,772.202,374.231z"/>
	<path fill="none" d="M374.702,699.987c8.035-0.937,16.077-1.994,24.113-3.142c-7.537,0.838-15.088,1.641-22.652,2.395
		C375.702,699.512,375.215,699.759,374.702,699.987z"/>
	<path fill="none" d="M-12.934,693.389c2.583-0.457,5.264-1.045,7.984-1.616C-7.468,691.783-10.12,692.374-12.934,693.389z"/>
	<path fill="none" d="M2871.792,704.268c3.021,0.069,6.039,0.13,9.057,0.19c-9.175-0.371-18.344-0.826-27.507-1.352
		C2859.477,703.689,2865.626,704.112,2871.792,704.268z"/>
	<path fill="none" d="M3705.514,497.062c5.071-3.628,10.124-7.253,15.179-10.864c-4.173,2.033-8.418,3.788-12.756,5.159
		c1.1-0.197,2.202-0.399,3.31-0.612C3709.413,492.911,3707.495,495.012,3705.514,497.062z"/>
	<path fill="none" d="M3838.258,415.935c37.374-16.604,75.379-30.406,113.89-41.743
		C3914.269,381.276,3874.747,397.611,3838.258,415.935z"/>
	<path fill="none" d="M1790.335,345.988c-9.913-1.857-19.956-3.175-29.966-4.57c57.705,10.891,113.528,21.041,169.135,36.535
		C1884.053,364.704,1837.751,355.072,1790.335,345.988z"/>
	<path fill="none" d="M147.354,707.487c-10.459-2.222-20.69-3.066-31.03-3.199C126.646,705.46,136.982,706.685,147.354,707.487z"/>
	<path fill="none" d="M2432.237,443.746c15.449-3.788,30.831-8.045,46.135-12.807
		C2463.145,435.45,2447.753,439.739,2432.237,443.746z"/>
	<path fill="none" d="M3592.937,498.844c-40.988,1.724-81.877,2.562-122.808,2.038
		C3511.149,501.991,3552.159,501.321,3592.937,498.844z"/>
	<path fill="none" d="M1672.022,331.302c-3.416,0.21-6.831,0.319-10.249,0.21C1665.182,331.663,1668.601,331.549,1672.022,331.302z"
		/>
	<path fill="none" d="M1043.109,445.127c-3.043,0.649-6.06,1.036-9.036,1.092c-1.975,0.035-3.959-0.011-5.95-0.117
		c2.571,1.109,5.068,2.299,7.473,3.589C1038.087,448.155,1040.593,446.633,1043.109,445.127z"/>
	<path fill="none" d="M2145.779,472.651c2.464,0,4.924-0.01,7.385-0.019c-5.356-0.623-10.525-1.931-15.552-3.676
		c4.446,2.593,8.886,5.207,13.32,7.828C2149.188,475.427,2147.464,474.053,2145.779,472.651z"/>
	<path fill="none" d="M153.028,199.697c75.996,9.906,150.935,22.94,224.875,40.214c-4.366-1.143-8.736-2.274-13.12-3.378
		c-95.811-24.108-196.629-36.565-294.943-45.548c-22.309-1.993-44.896-3.594-67.059-4.072c11.18,0.803,22.246,1.865,33.025,2.845
		C74.843,193.314,114.039,194.614,153.028,199.697z"/>
	<path fill="#FFFFFF" d="M3952.147,374.191c-38.511,11.339-76.516,25.14-113.89,41.743c-20.944,10.519-40.896,21.681-58.951,32.123
		c-19.308,11.348-38.071,28.13-58.614,38.14c-5.055,3.61-10.107,7.236-15.179,10.864c-23.262,24.071-56.272,40.503-85.019,57.461
		c-87.118,51.396-188.303,84.779-287.384,107.533c-146.279,33.599-299.844,48.579-452.265,42.402
		c-3.016-0.058-6.036-0.121-9.055-0.19c-6.166-0.155-12.315-0.578-18.452-1.162c-154.8-8.881-307.896-39.79-450.431-95.447
		c-62.013-24.199-120.253-51.769-177.721-85.062c-24.687-14.174-51.778-28.294-74.258-45.812c-4.435-2.621-8.872-5.234-13.32-7.83
		c-13.059-4.529-25.176-11.994-37.207-18.014c-30.252-15.721-59.688-31.918-90.754-44.915
		c-26.453-11.063-53.15-20.207-80.147-28.074c-55.604-15.494-111.43-25.644-169.133-36.535c-7.704-1.073-15.386-2.191-22.972-3.643
		c-10.383-1.985-19.575-7.76-30.252-8.453c-11.708-0.758-23.417,1.254-35.126,1.98c-3.421,0.247-6.84,0.361-10.247,0.21
		c-0.002,0-0.002,0-0.004,0c-138.515-5.891-273.344-1.891-408.381,32.624c-50.368,12.873-99.892,30.295-147.472,50.703
		c-18.837,8.083-41.454,25.72-62.81,30.288c-2.518,1.506-5.021,3.028-7.512,4.566c0.76,0.408,1.514,0.822,2.256,1.249
		c-55.317,32.639-102.254,76.124-158.815,107.362C746.369,631.89,587.877,673.565,436.623,692.364
		c-12.549,1.561-25.158,3.072-37.811,4.481c-8.036,1.148-16.077,2.205-24.112,3.142c-2.373,1.052-5.349,1.684-9.294,2.309v-1.278
		c-18.375,1.921-36.691,3.128-54.817,3.231c-27.305,1.339-54.627,1.593-81.8,0.221c-0.046,0.003-0.09,0.007-0.137,0.01
		c-8.742,0.692-17.358,6.125-26.469,5.496c-6.444-0.484-12.425-4.454-19.247-5.121c-10.137-0.589-19.814,3.032-29.91,3.032
		c-1.203-0.073-2.403-0.157-3.604-0.244c-0.059,0.085-0.117,0.16-0.177,0.244c-0.634-0.145-1.262-0.265-1.894-0.399
		c-10.371-0.802-20.708-2.027-31.031-3.199c-0.368-0.005-0.738-0.018-1.106-0.019v-0.106c-4.694-0.531-9.384-1.042-14.074-1.496
		c-0.336,0.503-0.683,1.027-1.051,1.603c-2.368-0.571-4.983-1.423-7.726-2.364c-2.466-0.188-4.934-0.355-7.399-0.488
		c-8.332-0.442-16.633-1.469-24.913-2.357c-0.551,0.468-1.074,0.989-1.558,1.588c-3.844-0.851-7.554-1.761-11.178-2.73
		c-1.316-0.087-2.63-0.174-3.945-0.233c-13.812-0.594-23.073,5.235-31.367-4.253c-0.542,2.255-1.329,4.399-2.665,7.217
		c-4.359-6.414-9.033-8.902-14.29-8.878c-2.719,0.573-5.398,1.162-7.983,1.618c-2.522,0.909-5.175,2.159-7.979,3.641v-2.842
		c-0.949-0.009-1.873-0.066-2.769-0.187v55.271h4403.404V331.165c-139.27-6.368-277.875,1.705-410.721,38.232
		c1.049,0.641,2.096,1.283,3.15,1.923C3965.557,371.952,3958.876,372.934,3952.147,374.191z M70.878,726.36H56.511v-13.751h14.367
		V726.36z M113.98,729.797c-9.433-2.882-11.354-4.723-14.368-13.75h14.368V729.797z M157.082,733.235
		c-14.368-4.391-14.368-12.796,0-17.188V733.235z M189.408,736.673v-17.188C203.214,723.876,203.214,732.283,189.408,736.673z
		 M232.509,736.673v-13.75c9.433,3.438,10.776,4.726,14.368,13.75H232.509z M286.388,740.11h-14.368v-13.75h14.368V740.11z
		 M318.715,743.548v-13.751h14.365C329.487,738.826,328.146,740.666,318.715,743.548z M361.815,733.235h17.959
		C375.187,746.986,366.401,746.986,361.815,733.235z"/>
	<path fill="#C2C2C3" d="M4385.851-0.126c1.6-1.53-2.194-1.338-2.393-1.148C4381.862,0.253,4385.655,0.063,4385.851-0.126z"/>
	<path fill="#E5E7EA" d="M2.782,186.913c22.164,0.48,44.751,2.079,67.059,4.072c98.314,8.982,199.132,21.439,294.944,45.548
		c4.381,1.104,8.752,2.235,13.119,3.378c57.994,13.549,115.372,29.704,172.16,49.012c56.293,19.136,110.476,44.176,165.953,65.502
		c18.671,6.729,37.391,13.353,56.188,19.806c44.631,14.505,89.46,28.771,134.717,41.506c14.851,4,29.733,7.899,44.634,11.821
		c24.577,5.404,53.584,8.62,76.568,18.542c1.993,0.108,3.976,0.153,5.95,0.119c2.977-0.056,5.993-0.441,9.036-1.092
		c5.742-3.439,11.543-6.806,17.434-10.061c73.757-40.878,158.817-65.361,242.003-83.051
		c117.985-25.248,239.178-28.51,359.227-20.502c0.001,0,0.001,0,0.001,0c3.418,0.11,6.833,0,10.249-0.21
		c13.049-0.942,26.145-3.918,38.907-2.459c10.614,1.217,19.828,6.935,30.251,8.932c6.422,1.229,12.816,2.44,19.19,3.643
		c10.008,1.395,20.051,2.713,29.966,4.57c47.414,9.083,93.716,18.716,139.169,31.965c22.932,6.39,45.827,13.681,68.804,22.32
		c49.043,18.115,94.597,42.604,139.303,68.682c5.026,1.745,10.195,3.053,15.552,3.678c94.496-0.305,187.979-6.559,279.073-28.886
		c15.516-4.009,30.907-8.298,46.135-12.809c6.371-1.981,12.729-4.037,19.071-6.198c52.562-17.917,103.138-38.944,155.034-58.775
		c20.199-7.53,37.813-21.133,60.501-19.344c35.906,2.983,70.915,16.251,105.875,23.339c105.878,21.507,209.3,54.017,313.852,81.901
		c109.208,29.219,223.34,45.94,337.424,49.021c40.931,0.524,81.819-0.315,122.808-2.038c2.884-0.174,5.77-0.341,8.65-0.535
		c36.371-2.388,69.833-0.449,106.349-6.955c4.337-1.371,8.584-3.125,12.755-5.159c32.98-23.559,65.973-46.407,103.991-64.111
		c4.515-2.096,9.042-4.138,13.574-6.151c36.49-18.324,76.011-34.66,113.89-41.743c5.608-1.651,11.227-3.248,16.855-4.796
		c-66.752-40.738-125.581-87.582-197.258-120.728c-204.188-94.263-461.32-131.495-680.635-71.694
		c-95.928,26.113-186.274,72.145-276.036,112.863c-25.481,11.558-50.356,24.528-75.624,36.531
		c-14.152,6.72-29.13,14.977-45.377,14.588c-20.665-0.493-40.367-7.337-60.502-10.835c-45.375-7.819-90.811-17.88-136.126-23.277
		c-66.542-7.906-133.484-17.669-200.408-22.057c-81.604-5.345-163.911-3.943-245.786-3.943c-75.775,0-155.912,0.214-230.662,13.087
		c-26.982,5.007-53.05,12.652-79.403,19.585c-11.345,2.846-22.689,9.278-34.031,7.136c-17.577-3.563-34.033-18.094-49.158-26.892
		c-33.395-18.282-68.063-35.669-102.097-51.792c-105.877-49.068-219.314-94.691-332.755-122.118
		c-268.552-64.77-545.515-85.999-820.545-48.155c-97.236,13.723-196.628,32.74-291.159,58.695
		c-45.464,12.879-89.969,28.87-135.12,42.159v13.115C-14.848,185.813-6,186.281,2.782,186.913z"/>
	<path fill="#E5E7EA" d="M3972.153,371.32c-1.055-0.64-2.102-1.284-3.15-1.924c-5.629,1.546-11.247,3.143-16.855,4.796
		C3958.876,372.934,3965.557,371.952,3972.153,371.32z"/>
	<path fill="#E5E7EA" d="M3838.258,415.935c-4.532,2.015-9.062,4.056-13.574,6.152c-38.019,17.703-71.013,40.552-103.991,64.111
		c20.543-10.01,39.307-26.794,58.614-38.14C3797.362,437.616,3817.313,426.453,3838.258,415.935z"/>
	<path fill="#E5E7EA" d="M1253.39,364.136c135.038-34.515,269.868-38.515,408.383-32.624c0,0,0.001,0,0.003,0h-0.002
		c-120.05-8.007-241.242-4.746-359.228,20.502c-83.186,17.69-168.246,42.173-242.003,83.051
		c-5.891,3.255-11.691,6.621-17.434,10.061c21.354-4.57,43.974-22.204,62.811-30.288
		C1153.5,394.431,1203.021,377.009,1253.39,364.136z"/>
	<path fill="#E5E7EA" d="M2100.405,450.942c12.03,6.02,24.146,13.484,37.207,18.014c-44.706-26.079-90.26-50.567-139.301-68.682
		c-22.977-8.639-45.874-15.931-68.806-22.32c26.995,7.868,53.694,17.011,80.147,28.074
		C2040.717,419.024,2070.153,435.221,2100.405,450.942z"/>
	<path fill="#E5E7EA" d="M1707.147,329.322c10.677,0.693,19.869,6.468,30.252,8.453c7.586,1.452,15.268,2.57,22.972,3.643
		c-6.374-1.203-12.769-2.414-19.19-3.643c-10.421-1.998-19.637-7.715-30.251-8.932c-12.763-1.459-25.858,1.517-38.907,2.459
		C1683.732,330.576,1695.439,328.564,1707.147,329.322z"/>
	<path fill="#F2F1F3" d="M-23.681,187.118v495.686c0.921-0.073,1.844-0.153,2.769-0.249v11.635c2.507,0.021,5.187-0.309,7.979-0.8
		c2.814-1.017,5.466-1.606,7.984-1.618c4.731-0.995,9.586-1.928,14.289-1.98c0.879,1.414,1.767,2.614,2.664,3.641
		c0.506-2.107,0.8-4.312,1.117-7.258c11.564,4.78,22.426,8.596,34.196,11.745c4.241,0.28,8.486,0.688,12.736,1.142
		c7.539-6.412,21.019-1.029,32.313,2.844c2.926,0.223,5.851,0.479,8.778,0.761c3.91-5.818,6.079-7.011,14.073-9.256v10.752
		c0.369,0.042,0.738,0.083,1.107,0.125c10.34,0.132,20.571,0.977,31.03,3.199c0.69,0.054,1.38,0.108,2.071,0.157
		c7.493-10.516,14.338-4.92,26.291-3.374c16.381,0.829,32.886-1.314,49.157,0c1.305,0.074,2.612,0.134,3.918,0.201
		c26.201-2.023,52.848-0.162,79.271-0.204c0.842,0,1.686-0.012,2.529-0.017c18.299-0.897,36.587-2.276,54.818-3.973v-11.73h17.957
		c-1.99,5.719-3.987,8.794-7.204,10.694c7.563-0.754,15.116-1.557,22.652-2.396c31.83-4.545,63.577-10.466,94.532-15.68
		c120.912-20.326,242.003-51.891,351.661-106.965c68.862-34.675,125.756-84.505,190.588-124.507
		c-2.404-1.29-4.901-2.481-7.473-3.591c-20.896-1.125-42.612-9.555-62.111-14.729c-4.82-1.277-9.639-2.546-14.455-3.814
		c-2.808-0.617-5.56-1.263-8.235-1.951c-12.168-3.161-24.299-6.462-36.399-9.869c-23.26-6.264-46.438-12.783-69.475-20.053
		c-21.89-6.834-43.617-14.029-65.243-21.455c-0.941-0.305-1.883-0.609-2.824-0.916c-17.992-5.714-35.74-12.117-53.361-18.89
		c-111.894-40.326-222.156-84.18-338.116-114.513c-73.939-17.275-148.879-30.31-224.875-40.216
		c-38.989-5.081-78.185-6.381-117.222-9.938c-10.778-0.981-21.845-2.043-33.024-2.846c-4.131-0.089-8.251-0.153-12.348-0.16
		C-14.124,186.752-18.87,186.95-23.681,187.118z M318.715,688.545c6.466-1.932,10.772-2.833,17.956-3.436v13.751
		c-7.184-0.606-11.491-1.505-17.956-3.439V688.545z M272.021,685.109c6.466-1.935,10.773-2.833,17.957-3.438v13.749
		c-7.184-0.603-11.491-1.501-17.957-3.437V685.109z M238.267,682.211c6.225-3.977,12.202,5.254,6.444,9.773
		C238.487,695.424,232.044,686.191,238.267,682.211z M195.167,678.774c6.223-3.978,12.2,5.253,6.444,9.771
		C195.385,691.988,188.942,682.753,195.167,678.774z M74.47,681.672H60.103v-13.751H74.47V681.672z M152.064,675.336
		c6.225-3.978,12.201,5.252,6.443,9.773C152.284,688.549,145.839,679.316,152.064,675.336z M103.205,671.358h14.366v13.751h-14.366
		V671.358z M31.367,248.53c20.23,0,45.896-4.094,64.654,3.438l-64.654,20.625V248.53z"/>
	<path fill="#F2F1F3" d="M-4.95,691.771c5.255-0.024,9.93,2.464,14.289,8.878c1.335-2.817,2.122-4.961,2.664-7.217
		c-0.897-1.027-1.785-2.227-2.664-3.641C4.636,689.843-0.218,690.776-4.95,691.771z"/>
	<path fill="#F2F1F3" d="M100.092,704.27c0.367-0.575,0.714-1.099,1.05-1.603c-2.927-0.282-5.852-0.538-8.779-0.761
		C95.108,702.846,97.723,703.698,100.092,704.27z"/>
	<path fill="#F2F1F3" d="M493.347,681.163c-30.955,5.214-62.703,11.137-94.532,15.682c12.653-1.409,25.263-2.92,37.811-4.481
		c151.253-18.799,309.746-60.475,442.414-134.061c56.56-31.238,103.498-74.723,158.815-107.362
		c-0.742-0.427-1.496-0.841-2.259-1.249c-64.832,40-121.726,89.833-190.586,124.505
		C735.349,629.272,614.259,660.837,493.347,681.163z"/>
	<path fill="#F2F1F3" d="M-20.913,694.188v2.842c2.805-1.482,5.457-2.73,7.979-3.641C-15.725,693.881-18.405,694.21-20.913,694.188z
		"/>
	<path fill="#F2F1F3" d="M149.248,707.886c0.058-0.083,0.117-0.158,0.177-0.242c-0.691-0.049-1.38-0.104-2.071-0.157
		C147.985,707.622,148.614,707.742,149.248,707.886z"/>
	<path fill="#F2F1F3" d="M58.495,700.648c0.483-0.599,1.007-1.12,1.558-1.588c-4.25-0.455-8.495-0.862-12.736-1.141
		C50.941,698.888,54.65,699.797,58.495,700.648z"/>
	<path fill="#F2F1F3" d="M115.216,704.27c0.369,0.003,0.738,0.015,1.107,0.019c-0.369-0.042-0.738-0.084-1.107-0.125V704.27z"/>
	<path fill="#F2F1F3" d="M228.791,704.471c27.172,1.372,54.496,1.116,81.8-0.221c-0.843,0.005-1.687,0.015-2.529,0.015
		C281.639,704.308,254.992,702.444,228.791,704.471z"/>
	<path fill="#F2F1F3" d="M-9.566,186.752c4.096,0.007,8.216,0.071,12.348,0.161c-8.781-0.632-17.629-1.099-26.462-1.247v1.452
		C-18.87,186.95-14.124,186.752-9.566,186.752z"/>
	<path fill="#F2F1F3" d="M906.921,415.738c-45.257-12.736-90.088-27.001-134.717-41.506c21.626,7.424,43.354,14.621,65.243,21.453
		C860.483,402.957,883.66,409.476,906.921,415.738z"/>
	<path fill="#F2F1F3" d="M550.063,288.921c-56.789-19.306-114.167-35.461-172.159-49.012
		c115.958,30.335,226.221,74.189,338.114,114.515C660.538,333.099,606.356,308.057,550.063,288.921z"/>
	<path fill="#F2F1F3" d="M1028.123,446.101c-22.982-9.921-51.989-13.138-76.568-18.542c4.816,1.266,9.636,2.537,14.457,3.814
		C985.509,436.547,1007.226,444.977,1028.123,446.101z"/>
	<path fill="#E5E7EA" d="M31.367,248.53v24.062l64.654-20.625C77.263,244.436,51.597,248.53,31.367,248.53z"/>
	<path fill="#F2F1F3" d="M2150.933,476.785c51.891,30.684,102.986,62.883,157.445,89.064
		c149.834,72.169,310.064,113.086,476.445,128.178c22.869,2.37,45.609,6.903,68.519,9.08c9.163,0.524,18.332,0.979,27.505,1.352
		c218.326,4.207,429.652-22.971,633.768-100.132c56.719-21.504,112.862-52.861,162.598-87.323
		c9.569-6.583,18.964-13.265,28.3-19.943c1.981-2.05,3.901-4.148,5.73-6.315c-1.105,0.213-2.208,0.415-3.309,0.611
		c-0.158,0.05-0.315,0.106-0.473,0.155c-31.668,10.193-65.62,5.246-98.313,6.613c-5.408,0.256-10.81,0.495-16.214,0.721
		c-40.775,2.477-81.787,3.145-122.808,2.038c-26.733-0.341-53.485-1.259-80.295-2.897
		c-162.595-10.857-321.412-62.309-476.444-104.026c-49.158-13.158-98.313-25.016-147.47-35.338
		c-19.475-4.042-40.243-12.624-60.501-11.82c-16.167,0.915-30.622,12.184-45.377,17.791c-40.523,15.4-79.858,33.109-121.001,47.053
		c-19.869,6.73-40.121,13.211-60.667,19.295c-15.306,4.761-30.686,9.02-46.135,12.807c-91.029,23.513-186.388,37.333-278.893,28.908
		c-0.061-0.007-0.119-0.016-0.181-0.022c-2.461,0.008-4.923,0.019-7.385,0.019C2147.464,474.053,2149.188,475.427,2150.933,476.785z
		"/>
	<path fill="#F2F1F3" d="M3514.616,604.328c-204.117,77.16-415.443,104.339-633.768,100.13
		c152.421,6.179,305.984-8.803,452.265-42.402c99.079-22.754,200.264-56.136,287.384-107.533
		c28.744-16.96,61.755-33.391,85.017-57.461c-9.334,6.679-18.729,13.358-28.3,19.943
		C3627.477,551.465,3571.333,582.822,3514.616,604.328z"/>
	<path fill="#F2F1F3" d="M2308.378,565.85c-54.459-26.182-105.555-58.381-157.445-89.064c22.479,17.518,49.57,31.636,74.258,45.812
		c57.468,33.293,115.706,60.863,177.721,85.062c142.533,55.658,295.629,86.566,450.431,95.447
		c-22.909-2.175-45.649-6.708-68.519-9.078C2618.442,678.936,2458.212,638.019,2308.378,565.85z"/>
	<path fill="#F2F1F3" d="M2660.042,364.593c14.755-5.608,29.21-16.877,45.377-17.791c20.256-0.805,41.024,7.777,60.5,11.819
		c49.155,10.321,98.311,22.179,147.471,35.337c155.03,41.717,313.85,93.169,476.442,104.026c26.81,1.639,53.562,2.556,80.297,2.897
		c-114.084-3.079-228.216-19.802-337.426-49.021c-104.55-27.884-207.97-60.395-313.85-81.9
		c-34.96-7.088-69.969-20.356-105.875-23.341c-22.688-1.787-40.304,11.816-60.501,19.344
		c-51.896,19.833-102.473,40.86-155.034,58.775c-6.343,2.163-12.7,4.218-19.071,6.2c20.546-6.083,40.798-12.564,60.667-19.294
		C2580.184,397.701,2619.519,379.992,2660.042,364.593z"/>
	<path fill="#F2F1F3" d="M2432.237,443.746c-91.092,22.329-184.577,28.583-279.073,28.886c0.06,0.009,0.12,0.018,0.179,0.023
		C2245.85,481.082,2341.208,467.261,2432.237,443.746z"/>
	<path fill="#F2F1F3" d="M3707.462,491.511c0.158-0.049,0.315-0.104,0.474-0.155c-36.515,6.506-69.976,4.567-106.349,6.955
		c-2.881,0.193-5.767,0.359-8.65,0.535c5.403-0.228,10.808-0.465,16.214-0.723C3641.845,496.756,3675.795,501.704,3707.462,491.511z
		"/>
	<rect x="60.103" y="667.921" fill="#D8D4DE" width="14.367" height="13.751"/>
	<rect x="103.205" y="671.358" fill="#DAD6DE" width="14.366" height="13.751"/>
	<path fill="#D9D6DE" d="M158.508,685.109c5.758-4.521-0.219-13.751-6.443-9.773C145.839,679.316,152.284,688.549,158.508,685.109z"
		/>
	<path fill="#D9D5DE" d="M201.611,688.545c5.756-4.518-0.221-13.749-6.444-9.771C188.942,682.753,195.385,691.988,201.611,688.545z"
		/>
	<path fill="#D9D7DE" d="M289.978,681.672c-7.183,0.604-11.491,1.503-17.957,3.438v6.875c6.465,1.935,10.773,2.834,17.957,3.437
		V681.672z"/>
	<path fill="#D9D7DE" d="M244.711,691.984c5.758-4.519-0.219-13.75-6.444-9.773C232.044,686.191,238.487,695.424,244.711,691.984z"
		/>
	<path fill="#D9D6DE" d="M336.671,685.109c-7.183,0.603-11.49,1.504-17.957,3.436v6.875c6.466,1.938,10.772,2.835,17.957,3.439
		V685.109z"/>
	<path fill="#D9D6DE" d="M365.409,700.276v0.741c3.096-0.322,6.193-0.668,9.293-1.031c0.513-0.228,1-0.475,1.46-0.747
		C372.58,699.597,368.995,699.942,365.409,700.276z"/>
	<path fill="#D9D6DE" d="M365.409,702.296c3.945-0.625,6.921-1.257,9.293-2.309c-3.1,0.362-6.197,0.708-9.293,1.031V702.296z"/>
	<path fill="#D9D6DE" d="M383.366,688.545h-17.957v11.731c3.587-0.334,7.171-0.68,10.753-1.036
		C379.379,697.34,381.376,694.265,383.366,688.545z"/>
	<rect x="56.511" y="712.609" fill="#E5E1E5" width="14.367" height="13.751"/>
	<path fill="#E4E1E5" d="M113.98,729.797v-13.75H99.613C102.626,725.075,104.547,726.916,113.98,729.797z"/>
	<path fill="#E4E2E6" d="M157.082,733.235v-17.188C142.714,720.439,142.714,728.845,157.082,733.235z"/>
	<path fill="#E4E2E6" d="M189.408,719.484v17.188C203.214,732.283,203.214,723.876,189.408,719.484z"/>
	<path fill="#E3E0E5" d="M232.509,722.922v13.75h14.368C243.286,727.648,241.942,726.36,232.509,722.922z"/>
	<rect x="272.021" y="726.36" fill="#E5E1E5" width="14.368" height="13.75"/>
	<path fill="#E1DEE4" d="M318.715,743.548c9.431-2.882,10.771-4.723,14.365-13.751h-14.365V743.548z"/>
	<path fill="#E4E0E5" d="M379.774,733.235h-17.959C366.401,746.986,375.187,746.986,379.774,733.235z"/>
</g>
<g>
</g>
<g>
</g>
<g>
</g>
<g>
</g>
<g>
</g>
<g>
</g>
</svg>
