<?xml version="1.0" encoding="utf-8"?>
<!-- Generator: Adobe Illustrator 16.0.3, SVG Export Plug-In . SVG Version: 6.00 Build 0)  -->
<!DOCTYPE svg PUBLIC "-//W3C//DTD SVG 1.1//EN" "http://www.w3.org/Graphics/SVG/1.1/DTD/svg11.dtd">
<svg version="1.1" id="Capa_1" xmlns="http://www.w3.org/2000/svg" xmlns:xlink="http://www.w3.org/1999/xlink" x="0px" y="0px"
	 width="464px" height="464px" viewBox="0 0 464 464" enable-background="new 0 0 464 464" xml:space="preserve">
<path fill="#FFFFFF" d="M344,166.266c-17.535,0-34.281,8.375-44.809,22.398l-6.297,8.402l-2.367,0.793
	C279.449,201.555,272,211.883,272,223.563v28.445c2.48-1.445,5.152-2.574,8-3.309v-18.434h16v5.762
	c3.594,3.125,7.625,5.68,11.969,7.574l9.688-9.688c4.121,4.121,9.008,7.375,14.313,9.688l9.688-9.688
	c8.68,8.68,20.695,13.656,32.969,13.656H376v-17.297h16v18.434c2.848,0.734,5.52,1.863,8,3.313v-29.746
	C400,191.395,374.871,166.266,344,166.266z"/>
<path fill="#FFFFFF" d="M72,168.496c-4.762,2.777-8,7.883-8,13.777c0,6.023,3.391,11.223,8.328,13.953
	c-0.207-1.961-0.328-3.945-0.328-5.961V168.496z"/>
<path fill="#FFFFFF" d="M432,46.266H240v312h192V46.266z M256,94.266h72v16h-72V94.266z M416,279.563
	c0,16.742-12.961,30.359-29.352,31.734c-8.961,19.031-28.266,32.266-50.648,32.266s-41.688-13.242-50.648-32.266
	C268.961,309.93,256,296.305,256,279.563v-56c0-17.703,10.754-33.457,27.016-39.984l3.383-4.504
	c13.523-18.039,35.059-28.809,57.602-28.809c39.703,0,72,32.297,72,72V279.563z M416,142.266H256v-16h160V142.266z M416,110.266h-72
	v-16h72V110.266z M416,78.266H256v-16h160V78.266z"/>
<path fill="#FFFFFF" d="M280,265.793c-4.762,2.777-8,7.879-8,13.777c0,6.023,3.391,11.223,8.328,13.953
	c-0.207-1.961-0.328-3.945-0.328-5.961V265.793z"/>
<path fill="#FFFFFF" d="M352,259.242v4.328h-1.375c-7.77,0-15.441-1.535-22.625-4.328v4.328h-1.375
	c-10.746,0-21.32-2.891-30.625-8.09v32.09c0,22.055,17.945,40,40,40s40-17.945,40-40v-24h-1.375
	C366.855,263.563,359.184,262.035,352,259.242z"/>
<path fill="#FFFFFF" d="M392,265.793v21.777c0,2.008-0.121,3.992-0.328,5.953c4.938-2.738,8.328-7.93,8.328-13.961
	C400,273.672,396.762,268.57,392,265.793z"/>
<path fill="#FFFFFF" d="M224,46.266H32v312h192V46.266z M48,294.266h72v16H48V294.266z M208,342.266H48v-16h160V342.266z
	 M208,310.266h-72v-16h72V310.266z M208,278.266H48v-16h160V278.266z M208,182.266c0,16.742-12.961,30.359-29.352,31.734
	c-8.961,19.035-28.266,32.266-50.648,32.266S86.313,233.027,77.352,214C60.961,212.625,48,199.008,48,182.266v-40
	c0-44.113,35.887-80,80-80s80,35.887,80,80V182.266z"/>
<path fill="#FFFFFF" d="M448,78.266v296H16v-296H0v312h192v8c0,22.055,17.945,40,40,40s40-17.945,40-40v-8h192v-312H448z"/>
<path fill="#FFFFFF" d="M128,78.266c-35.289,0-64,28.711-64,64v12.449c2.48-1.449,5.152-2.578,8-3.313v-9.137h16v17.289
	c19.383-11.16,41.594-17.289,64-17.289h32v9.137c2.848,0.734,5.52,1.863,8,3.313v-12.449C192,106.977,163.289,78.266,128,78.266z"/>
<path fill="#FFFFFF" d="M88,178.465v11.809c0,22.055,17.945,40,40,40s40-17.945,40-40v-32h-16
	C129.223,158.266,106.688,165.465,88,178.465z"/>
<path fill="#FFFFFF" d="M184,168.496v21.777c0,2.008-0.121,3.992-0.328,5.953c4.938-2.738,8.328-7.938,8.328-13.961
	C192,176.379,188.762,171.273,184,168.496z"/>
</svg>
