<?xml version="1.0" encoding="utf-8"?>
<!-- Generator: Adobe Illustrator 16.0.3, SVG Export Plug-In . SVG Version: 6.00 Build 0)  -->
<!DOCTYPE svg PUBLIC "-//W3C//DTD SVG 1.1//EN" "http://www.w3.org/Graphics/SVG/1.1/DTD/svg11.dtd">
<svg version="1.1" id="Capa_1" xmlns="http://www.w3.org/2000/svg" xmlns:xlink="http://www.w3.org/1999/xlink" x="0px" y="0px"
	 width="480px" height="480px" viewBox="0 0 480 480" enable-background="new 0 0 480 480" xml:space="preserve">
<path fill="#FFFFFF" d="M369,368h-16v32H209v16h144v24c0,13.254-10.746,24-24,24H153c-8.574-0.012-16.496-4.582-20.801-12l-13.855,8
	c7.172,12.355,20.371,19.973,34.656,20h176c22.082-0.027,39.973-17.918,40-40V368z"/>
<path fill="#FFFFFF" d="M233,432h16v16h-16V432z"/>
<path fill="#FFFFFF" d="M281,216v-16h-24.406c-3.988-51.051-44.543-91.605-95.594-95.594V80h-16v24.406
	c-5.391,0.414-10.738,1.25-16,2.496V64h128V48H129v-8c0-13.254,10.746-24,24-24h176c5.844,0,11.488,2.133,15.871,6l10.586-12
	C348.152,3.551,338.742-0.004,329,0H153c-22.082,0.027-39.973,17.918-40,40v72c-36.023,15.09-60.574,49.063-63.594,88H25v16h24.426
	c3.773,51.148,44.426,91.828,95.574,95.633V336h16v-24.367c51.148-3.805,91.801-44.484,95.574-95.633H281z M145,280v15.633
	c-11.16-1.004-22.02-4.141-32-9.234V272c0-22.09,17.91-40,40-40s40,17.91,40,40v14.398c-9.977,5.102-20.84,8.242-32,9.258V280H145z
	 M129,192c0-13.254,10.746-24,24-24s24,10.746,24,24s-10.746,24-24,24S129,205.254,129,192z M211.664,273.602
	c-0.863,0.797-1.785,1.438-2.664,2.176V272c-0.02-20.898-11.676-40.047-30.23-49.664c12.852-10.824,17.566-28.527,11.805-44.309
	c-5.762-15.785-20.773-26.285-37.574-26.285s-31.813,10.5-37.574,26.285c-5.762,15.781-1.047,33.484,11.805,44.309
	C108.676,231.953,97.02,251.102,97,272v3.816c-0.887-0.727-1.809-1.41-2.664-2.176C77.758,258.773,67.426,238.18,65.426,216H81v-16
	H65.406c3.91-42.234,37.359-75.684,79.594-79.594V136h16v-15.594c42.234,3.91,75.684,37.359,79.594,79.594H225v16h15.574
	c-2,22.18-12.332,42.773-28.91,57.641V273.602z"/>
<path fill="#FFFFFF" d="M457,144c4.418,0,8-3.582,8-8V40c0-4.418-3.582-8-8-8H281c-4.418,0-8,3.582-8,8v96c0,4.418,3.582,8,8,8H457z
	 M289,48h160v80H289V48z"/>
<path fill="#FFFFFF" d="M305,64h32v16h-32V64z"/>
<path fill="#FFFFFF" d="M353,64h80v16h-80V64z"/>
<path fill="#FFFFFF" d="M305,96h128v16H305V96z"/>
<path fill="#FFFFFF" d="M455.586,160c-6.195,0.012-12.172,2.285-16.801,6.398L369,227.922V160h-16v80h2.313l-45.512,40.16
	C280.191,281.855,257.035,306.34,257,336v14.113c0.031,7.938-4.457,15.207-11.574,18.727c-3.324,1.656-5.07,5.383-4.219,8.996
	s4.078,6.168,7.793,6.164h56c29.66-0.035,54.145-23.191,55.84-52.801l113.809-128.977c6.605-7.492,8.211-18.16,4.098-27.266
	C474.637,165.852,465.574,160,455.586,160z M305,368h-36.586c3.02-5.477,4.598-11.633,4.586-17.887V336
	c0.027-20.84,16.027-38.18,36.801-39.871l35.07,35.07C343.184,351.973,325.84,367.977,305,368z M462.648,191.641L352.641,316.32
	l-27.961-27.953l124.68-110.016c3.73-3.273,9.359-3.09,12.871,0.418C465.738,182.281,465.922,187.91,462.648,191.641z"/>
<path fill="#FFFFFF" d="M9,440h176c4.418,0,8-3.582,8-8v-64c0-4.418-3.582-8-8-8h-56v-40h-16v40H9c-4.418,0-8,3.582-8,8v64
	C1,436.418,4.582,440,9,440z M17,376h160v48H17V376z"/>
<path fill="#FFFFFF" d="M33,392h40v16H33V392z"/>
<path fill="#FFFFFF" d="M89,392h72v16H89V392z"/>
<path fill="#FFFFFF" d="M9,112h80c4.418,0,8-3.582,8-8V40c0-4.418-3.582-8-8-8H9c-4.418,0-8,3.582-8,8v64C1,108.418,4.582,112,9,112
	z M17,48h64v48H17V48z"/>
<path fill="#FFFFFF" d="M33,64h32v16H33V64z"/>
</svg>
