<?xml version="1.0" encoding="utf-8"?>
<!-- Generator: Adobe Illustrator 16.0.3, SVG Export Plug-In . SVG Version: 6.00 Build 0)  -->
<!DOCTYPE svg PUBLIC "-//W3C//DTD SVG 1.1//EN" "http://www.w3.org/Graphics/SVG/1.1/DTD/svg11.dtd">
<svg version="1.1" id="Capa_1" xmlns="http://www.w3.org/2000/svg" xmlns:xlink="http://www.w3.org/1999/xlink" x="0px" y="0px"
	 width="1125px" height="1125px" viewBox="-14 547.5 1125 1125" enable-background="new -14 547.5 1125 1125" xml:space="preserve">
<path fill="#FFFFFF" d="M649.574,635.391c-12.128,0-21.973,9.845-21.973,21.973s9.845,21.973,21.973,21.973
	s21.973-9.845,21.973-21.973S661.702,635.391,649.574,635.391z"/>
<path fill="#FFFFFF" d="M825.355,635.391h-87.891c-12.137,0-21.973,9.836-21.973,21.973s9.836,21.973,21.973,21.973h87.891
	c12.137,0,21.973-9.836,21.973-21.973S837.492,635.391,825.355,635.391z"/>
<path fill="#FFFFFF" d="M1001.137,635.391h-87.891c-12.137,0-21.973,9.836-21.973,21.973s9.836,21.973,21.973,21.973h87.891
	c12.137,0,21.973-9.836,21.973-21.973S1013.273,635.391,1001.137,635.391z"/>
<path fill="#FFFFFF" d="M1032.901,564.553H67.151c-35.346,0-64.099,28.752-64.099,64.099v965.75
	c0,35.347,28.752,64.099,64.099,64.099h965.75c35.347,0,64.099-28.752,64.099-64.099v-965.75
	C1097,593.305,1068.248,564.553,1032.901,564.553z M1054.268,1594.401c0,11.785-9.582,21.366-21.366,21.366H67.151
	c-11.785,0-21.366-9.581-21.366-21.366V778.214h1008.482V1594.401z M1054.268,735.482H45.785V628.651
	c0-11.785,9.582-21.366,21.366-21.366h965.75c11.784,0,21.366,9.582,21.366,21.366V735.482z"/>
<path fill="#FFFFFF" d="M152.992,1044.082h791.016c12.137,0,21.973-9.836,21.973-21.973V890.273
	c0-12.137-9.836-21.973-21.973-21.973H152.992c-12.137,0-21.973,9.836-21.973,21.973v131.836
	C131.02,1034.246,140.855,1044.082,152.992,1044.082z M174.965,912.246h747.07v87.891h-747.07V912.246z"/>
<path fill="#FFFFFF" d="M152.992,1534.072h263.672c12.137,0,21.973-9.836,21.973-21.973v-351.563
	c0-12.137-9.836-21.973-21.973-21.973H152.992c-12.137,0-21.973,9.836-21.973,21.973V1512.1
	C131.02,1524.236,140.855,1534.072,152.992,1534.072z M174.965,1182.51h219.727v307.617H174.965V1182.51z"/>
<path fill="#FFFFFF" d="M944.008,1138.564H548.5c-0.215,0-0.421,0.025-0.635,0.034c-12.06,0.344-21.338,10.291-21.338,21.938V1512.1
	c0,0.129,0.018,0.258,0.018,0.387c0.214,12.127,10.171,21.586,21.955,21.586h395.508c11.845,0,21.741-9.493,21.955-21.586
	c0-0.129,0.018-0.258,0.018-0.387v-351.563C965.98,1148.538,956.195,1138.564,944.008,1138.564z M886.218,1182.51l-139.964,124.411
	L606.29,1182.51H886.218z M570.473,1209.469l142.711,126.85l-142.711,126.85V1209.469z M606.29,1490.127l139.964-124.411
	l139.964,124.411H606.29z M922.035,1463.168l-142.711-126.85l142.711-126.85V1463.168z"/>
</svg>
